<?xml version="1.0" encoding="us-ascii" standalone="no"?><svg xmlns="http://www.w3.org/2000/svg" xmlns:xlink="http://www.w3.org/1999/xlink" contentStyleType="text/css" height="484px" preserveAspectRatio="none" style="width:1076px;height:484px;background:#FFFFFF;" version="1.1" viewBox="0 0 1076 484" width="1076px" zoomAndPan="magnify"><defs/><g><text fill="#000000" font-family="Arial Bold" font-size="40" font-weight="bold" lengthAdjust="spacing" textLength="410" x="326.5" y="53.6719">System Architecture</text><!--cluster ROBOT--><g id="cluster_ROBOT"><path d="M21,154.25 L132,154.25 A15,15 0 0 1 142,164.25 L149,240.3359 L328,240.3359 A10,10 0 0 1 338,250.3359 L338,463.05 A10,10 0 0 1 328,473.05 L21,473.05 A10,10 0 0 1 11,463.05 L11,164.25 A10,10 0 0 1 21,154.25 " fill="#BBDEFB" style="stroke:#000000;stroke-width:4.0;"/><line style="stroke:#000000;stroke-width:4.0;" x1="11" x2="149" y1="240.3359" y2="240.3359"/><text fill="#000000" font-family="Arial Bold" font-size="24" font-weight="bold" lengthAdjust="spacing" textLength="89" x="33" y="179.4531">ROBOT</text><text fill="#000000" font-family="Arial Bold" font-size="24" font-weight="bold" lengthAdjust="spacing" textLength="8" x="73.5" y="207.7188">&#160;</text><text fill="#000000" font-family="Arial Bold" font-size="20" font-weight="bold" lengthAdjust="spacing" textLength="125" x="15" y="232.1172">Jetson Nano</text></g><!--cluster SERVER--><g id="cluster_SERVER"><path d="M388,154.25 L485,154.25 A15,15 0 0 1 495,164.25 L502,240.3359 L722,240.3359 A10,10 0 0 1 732,250.3359 L732,463.05 A10,10 0 0 1 722,473.05 L388,473.05 A10,10 0 0 1 378,463.05 L378,164.25 A10,10 0 0 1 388,154.25 " fill="#FFF9C4" style="stroke:#000000;stroke-width:4.0;"/><line style="stroke:#000000;stroke-width:4.0;" x1="378" x2="502" y1="240.3359" y2="240.3359"/><text fill="#000000" font-family="Arial Bold" font-size="24" font-weight="bold" lengthAdjust="spacing" textLength="93" x="391" y="179.4531">SERVER</text><text fill="#000000" font-family="Arial Bold" font-size="24" font-weight="bold" lengthAdjust="spacing" textLength="8" x="433.5" y="207.7188">&#160;</text><text fill="#000000" font-family="Arial Bold" font-size="20" font-weight="bold" lengthAdjust="spacing" textLength="111" x="382" y="232.1172">Remote PC</text></g><!--cluster DASH--><g id="cluster_DASH"><path d="M782,154.25 L927,154.25 A15,15 0 0 1 937,164.25 L944,240.3359 L1055,240.3359 A10,10 0 0 1 1065,250.3359 L1065,463.05 A10,10 0 0 1 1055,473.05 L782,473.05 A10,10 0 0 1 772,463.05 L772,164.25 A10,10 0 0 1 782,154.25 " fill="#F8BBD0" style="stroke:#000000;stroke-width:4.0;"/><line style="stroke:#000000;stroke-width:4.0;" x1="772" x2="944" y1="240.3359" y2="240.3359"/><text fill="#000000" font-family="Arial Bold" font-size="24" font-weight="bold" lengthAdjust="spacing" textLength="159" x="776" y="179.4531">DASHBOARD</text><text fill="#000000" font-family="Arial Bold" font-size="24" font-weight="bold" lengthAdjust="spacing" textLength="8" x="851.5" y="207.7188">&#160;</text><text fill="#000000" font-family="Arial Bold" font-size="20" font-weight="bold" lengthAdjust="spacing" textLength="134" x="788.5" y="232.1172">Web Browser</text></g><!--entity R1--><g id="elem_R1"><rect fill="#E3F2FD" height="104.7969" rx="10" ry="10" style="stroke:#000000;stroke-width:1.0;" width="260" x="35" y="344.25"/><text fill="#000000" font-family="Arial Bold" font-size="24" lengthAdjust="spacing" textLength="200" x="45" y="377.4531">&#8226; ROS Navigation</text><text fill="#000000" font-family="Arial Bold" font-size="24" lengthAdjust="spacing" textLength="240" x="45" y="405.7188">&#8226; Obstacle Detection</text><text fill="#000000" font-family="Arial Bold" font-size="24" lengthAdjust="spacing" textLength="224" x="45" y="433.9844">&#8226; Sensor Collection</text></g><!--entity S1--><g id="elem_S1"><rect fill="#FFFDE7" height="104.7969" rx="10" ry="10" style="stroke:#000000;stroke-width:1.0;" width="287" x="401.5" y="344.25"/><text fill="#000000" font-family="Arial Bold" font-size="24" lengthAdjust="spacing" textLength="209" x="411.5" y="377.4531">&#8226; FastAPI Backend</text><text fill="#000000" font-family="Arial Bold" font-size="24" lengthAdjust="spacing" textLength="206" x="411.5" y="405.7188">&#8226; Data Processing</text><text fill="#000000" font-family="Arial Bold" font-size="24" lengthAdjust="spacing" textLength="267" x="411.5" y="433.9844">&#8226; PostgreSQL Database</text></g><!--entity D1--><g id="elem_D1"><rect fill="#FCE4EC" height="104.7969" rx="10" ry="10" style="stroke:#000000;stroke-width:1.0;" width="226" x="796" y="344.25"/><text fill="#000000" font-family="Arial Bold" font-size="24" lengthAdjust="spacing" textLength="196" x="806" y="377.4531">&#8226; React Frontend</text><text fill="#000000" font-family="Arial Bold" font-size="24" lengthAdjust="spacing" textLength="206" x="806" y="405.7188">&#8226; Mission Control</text><text fill="#000000" font-family="Arial Bold" font-size="24" lengthAdjust="spacing" textLength="203" x="806" y="433.9844">&#8226; Live Monitoring</text></g><!--link ROBOT to SERVER--><g id="link_ROBOT_SERVER"><path d="M338.2431,232.0213 C338.4891,231.2393 338.7393,230.4588 338.9938,229.68 C340.0119,226.5648 341.0985,223.4759 342.2577,220.4208 C346.8941,208.2004 352.6904,196.5208 359.8971,185.8585 C363.5005,180.5274 367.4565,175.4506 371.7966,170.6876 C372.8816,169.4969 373.9906,168.3258 375.1241,167.1752 C375.6908,166.5999 376.2637,166.0298 376.8428,165.4649 C377.1323,165.1824 377.4234,164.9013 377.716,164.6215 C377.7891,164.5515 373.5154,168.6173 373.5888,168.5476 " fill="none" id="ROBOT-to-SERVER" style="stroke:#000000;stroke-width:6.0;"/><polygon fill="#000000" points="377.9357,164.4119,368.6582,167.7174,374.3133,167.8583,374.1724,173.5134,377.9357,164.4119" style="stroke:#000000;stroke-width:6.0;"/><text fill="#000000" font-family="Arial Bold" font-size="22" font-weight="bold" lengthAdjust="spacing" textLength="47" x="588.5" y="103.5195">WiFi</text><text fill="#000000" font-family="Arial Bold" font-size="18" lengthAdjust="spacing" textLength="104" x="560" y="125.5625">Sensor Data</text></g><!--reverse link ROBOT to SERVER--><g id="link_ROBOT_SERVER"><path d="M340.0436,226.2978 C341.0617,223.1826 341.0985,223.4759 342.2577,220.4208 C346.8941,208.2004 352.6904,196.5208 359.8971,185.8585 C363.5005,180.5274 367.4565,175.4506 371.7966,170.6876 C372.8816,169.4969 373.9906,168.3258 375.1241,167.1752 C375.6908,166.5999 376.2637,166.0298 376.8428,165.4649 C377.1323,165.1824 377.4234,164.9013 377.716,164.6215 C377.7891,164.5515 377.8624,164.4817 377.9357,164.4119 " fill="none" id="ROBOT-backto-SERVER" style="stroke:#000000;stroke-width:6.0;"/><polygon fill="#000000" points="338.2431,232.0213,344.7595,224.6365,339.7435,227.2518,337.1283,222.2357,338.2431,232.0213" style="stroke:#000000;stroke-width:6.0;"/><text fill="#000000" font-family="Arial Bold" font-size="22" font-weight="bold" lengthAdjust="spacing" textLength="46" x="589" y="103.5195">ROS</text><text fill="#000000" font-family="Arial Bold" font-size="18" lengthAdjust="spacing" textLength="62" x="581" y="125.5625">Launch</text></g><!--link SERVER to DASH--><g id="link_SERVER_DASH"><path d="M732.2431,232.0213 C732.4891,231.2393 732.7393,230.4588 732.9938,229.68 C734.0119,226.5648 735.0985,223.4759 736.2577,220.4208 C740.8941,208.2004 746.6904,196.5208 753.8971,185.8585 C757.5005,180.5274 761.4565,175.4506 765.7966,170.6876 C766.8816,169.4969 767.9906,168.3258 769.1241,167.1752 C769.6908,166.5999 770.2637,166.0298 770.8428,165.4649 C771.1323,165.1824 771.4234,164.9013 771.716,164.6215 C771.7891,164.5515 767.5154,168.6173 767.5888,168.5476 " fill="none" id="SERVER-to-DASH" style="stroke:#000000;stroke-width:6.0;"/><polygon fill="#000000" points="771.9357,164.4119,762.6582,167.7174,768.3133,167.8583,768.1724,173.5134,771.9357,164.4119" style="stroke:#000000;stroke-width:6.0;"/><text fill="#000000" font-family="Arial Bold" font-size="22" font-weight="bold" lengthAdjust="spacing" textLength="60" x="948" y="103.5195">HTTP</text><text fill="#000000" font-family="Arial Bold" font-size="18" lengthAdjust="spacing" textLength="85" x="935.5" y="125.5625">Real-time</text></g><!--reverse link SERVER to DASH--><g id="link_SERVER_DASH"><path d="M734.0436,226.2978 C735.0617,223.1826 735.0985,223.4759 736.2577,220.4208 C740.8941,208.2004 746.6904,196.5208 753.8971,185.8585 C757.5005,180.5274 761.4565,175.4506 765.7966,170.6876 C766.8816,169.4969 767.9906,168.3258 769.1241,167.1752 C769.6908,166.5999 770.2637,166.0298 770.8428,165.4649 C771.1323,165.1824 771.4234,164.9013 771.716,164.6215 C771.7891,164.5515 771.8624,164.4817 771.9357,164.4119 " fill="none" id="SERVER-backto-DASH" style="stroke:#000000;stroke-width:6.0;"/><polygon fill="#000000" points="732.2431,232.0213,738.7595,224.6365,733.7435,227.2518,731.1283,222.2357,732.2431,232.0213" style="stroke:#000000;stroke-width:6.0;"/><text fill="#000000" font-family="Arial Bold" font-size="22" font-weight="bold" lengthAdjust="spacing" textLength="56" x="950" y="103.5195">REST</text><text fill="#000000" font-family="Arial Bold" font-size="18" lengthAdjust="spacing" textLength="98" x="929" y="125.5625">Commands</text></g><!--SRC=[TP9BRjim48RtEiNKtXamOgj6cmQ60Ek5j70YLJAQJJQqD948KwH1qYdQea3FqgFr9ALCsL44XylXF_zyytYdQsmGzenGxZXgH_cUID90YK_am7GikCxfJmHtSVdpdfZibQI4WIzOsHEjf1JVDpKjTXoLWW-zhpqfTgH2NyWIvOkaNo8J1ru6GdAKuCuSHrFD49PRRwaCpirYvkK_bCQsJ55JZOK-I5nUjP_UychhEKvN14QJIPRuoMOoUUIFtAQxC-yBQYKut1CkkhGH40L7AOnzFunY7tuvO9uqxeHNflxetv-_HfARj6TQ4Ks5iMnZoLPfKXX5Y2tBEPuZLq9281YpOLja3kFeVUp6eVFx5MWUPT-YR42QOICqGXhqEQqInd4SVmeMbq5ZelGg_Go-AO2yj4GXqGHIAGepSSeh6qo5qfN4_Elw-Byb2csL-R5267qSW8Qh_DPFLbauO7t0BVXcxmfbdxQL6wThCzRP6qD5KcY8fJcfC-eTDOXcHu49Ii5iS4sV4Uu4frf8ms_jMymWMaH1YsbNE9MqglNKEqtgvkLuNDTxe37jNSkfW_crrssi7KCdS3g7i-EnczT-jvjDUjdFDCQccZQdutIEsLE6Js_2PL6-kMmMYAOXl5H3iixDTZumI_BBNcjou4LzSleF]--></g></svg>