<?xml version="1.0" encoding="us-ascii" standalone="no"?><svg xmlns="http://www.w3.org/2000/svg" xmlns:xlink="http://www.w3.org/1999/xlink" contentStyleType="text/css" height="1507.5px" preserveAspectRatio="none" style="width:1942px;height:1507px;background:#FFFFFF;" version="1.1" viewBox="0 0 1942 1507" width="1942.5px" zoomAndPan="magnify"><defs/><g><text fill="#000000" font-family="Verdana" font-size="75" font-weight="bold" lengthAdjust="spacing" textLength="422.5" x="749.325" y="112.9028">Data Flow</text><!--entity SENSORS--><g id="elem_SENSORS"><path d="M692.1542,208.3681 C703.0878,187.0767 718.1727,185.5769 734.4088,202.5059 C747.1491,185.658 762.4398,183.6497 773.9816,203.7881 C782.3633,182.3789 800.9709,177.8702 815.1461,198.0544 C830.9236,179.0601 845.8774,176.9357 860.377,199.4471 C869.3082,176.3821 890.3971,173.0285 903.408,195.6004 C915.5988,175.0061 938.2317,171.1499 952.3575,193.3891 C967.4817,172.495 985.3209,177.89 994.2261,199.5131 C1008.4419,177.692 1020.9811,180.8529 1034.7294,199.9756 C1049.5215,177.9897 1066.3504,183.0198 1079.0608,202.2165 C1091.02,178.1186 1112.6739,180.2876 1123.5419,203.2479 C1135.3546,183.7828 1154.5195,180.6077 1166.4,203.1788 C1190.595,180.2278 1215.3205,183.9734 1222.5,219.5019 C1227.4031,217.5256 1229.7609,220.2401 1229.1007,224.9742 C1248.6984,237.3908 1250.7268,252.5195 1229.8833,265.7129 C1252.4875,279.8365 1254.9181,295.4961 1232.9249,312.5179 C1258.3792,323.0065 1259.0942,341.292 1239.7023,358.4043 C1256.9773,369.9474 1256.7073,389.7228 1238.8749,400.577 C1260.6351,416.2232 1259.3585,435.8237 1233.9512,446.402 C1255.104,461.9986 1257.2917,480.8607 1230.7178,493.1567 C1247.9259,504.4813 1250.5625,522.9457 1229.7117,533.3167 C1254.6271,567.8863 1243.4161,586.1133 1205,595.5249 C1206.4906,595.6009 1207.0886,596.799 1206.3283,598.0562 C1200.1871,617.4139 1181.3774,619.7412 1168.06,606.4736 C1160.8867,623.0186 1145.618,624.5596 1135.1837,609.9105 C1123.9051,625.1912 1112.9481,627.5315 1100.4728,611.2256 C1090.5252,633.746 1069.4886,628.9609 1058.5447,612.2916 C1051.414,630.2154 1036.3517,629.6686 1025.8718,615.7254 C1015.8846,633.1483 1005.4174,638.9104 989.2013,622.4707 C979.4644,641.1371 963.5143,642.1036 950.0422,626.773 C938.0004,641.1114 921.7118,643.6587 913.6638,622.6614 C900.2437,638.3479 885.1601,637.9369 873.4137,620.6203 C862.4407,640.9978 843.2924,637.0434 834.1793,618.734 C820.7467,630.3999 804.1035,627.4367 799.5506,608.64 C788.2789,624.4459 770.101,623.9773 762.5073,604.7508 C748.0966,619.5354 737.9708,616.6159 728.2165,599.712 C703.0038,621.8709 671.063,616.4778 667.5,578.0249 C669.4458,579.1021 670.0826,580.7824 667.9593,582.2972 C648.8873,569.1135 644.8034,550.1497 667.7069,536.7335 C647.5294,525.2969 651.6692,505.7394 668.7287,495.2193 C644.6257,483.271 647.8804,459.9715 668.9951,448.2799 C644.5865,435.0377 642.9481,415.8928 665.1148,398.9844 C642.0548,387.3349 643.2966,367.1841 665.2354,355.6599 C646.7463,343.0749 645.4451,327.6534 664.9551,314.8077 C645.8542,298.0022 643.5342,273.6952 673.0715,264.7808 C648.0023,242.3586 654.3011,213.8276 685,202.0019 C690.374,200.6749 692.7919,202.9393 692.1542,208.3681 " fill="#FFCCBC" style="stroke:#000000;stroke-width:2.5;"/><text fill="#000000" font-family="Verdana" font-size="55" font-weight="bold" lengthAdjust="spacing" textLength="370" x="685" y="274.7973">&#127777;&#65039; SENSORS</text><text fill="#000000" font-family="Verdana" font-size="50" lengthAdjust="spacing" textLength="17.5" x="685" y="336.6137">&#160;</text><text fill="#000000" font-family="Verdana" font-size="40" lengthAdjust="spacing" textLength="265" x="685" y="387.3266">Temperature</text><text fill="#000000" font-family="Verdana" font-size="50" lengthAdjust="spacing" textLength="222.5" x="685" y="445.9936">Humidity</text><text fill="#000000" font-family="Verdana" font-size="50" lengthAdjust="spacing" textLength="417.5" x="685" y="506.7602">Thermal Camera</text><text fill="#000000" font-family="Verdana" font-size="50" lengthAdjust="spacing" textLength="520" x="685" y="567.5268">RGB Camera&lt;/size&gt;</text></g><!--entity DB--><g id="elem_DB"><path d="M27.5,962.6519 C27.5,937.6519 330,937.6519 330,937.6519 C330,937.6519 632.5,937.6519 632.5,962.6519 L632.5,1282.9083 C632.5,1307.9083 330,1307.9083 330,1307.9083 C330,1307.9083 27.5,1307.9083 27.5,1282.9083 L27.5,962.6519 " fill="#E1BEE7" style="stroke:#000000;stroke-width:2.5;"/><path d="M27.5,962.6519 C27.5,987.6519 330,987.6519 330,987.6519 C330,987.6519 632.5,987.6519 632.5,962.6519 " fill="none" style="stroke:#000000;stroke-width:2.5;"/><text fill="#000000" font-family="Verdana" font-size="55" font-weight="bold" lengthAdjust="spacing" textLength="555" x="52.5" y="1052.9473">&#128202; DATA STORAGE</text><text fill="#000000" font-family="Verdana" font-size="50" lengthAdjust="spacing" textLength="17.5" x="52.5" y="1114.7637">&#160;</text><text fill="#000000" font-family="Verdana" font-size="40" lengthAdjust="spacing" textLength="235" x="52.5" y="1165.4766">PostgreSQL</text><text fill="#000000" font-family="Verdana" font-size="50" lengthAdjust="spacing" textLength="282.5" x="52.5" y="1224.1436">Image Files</text><text fill="#000000" font-family="Verdana" font-size="50" lengthAdjust="spacing" textLength="547.5" x="52.5" y="1284.9102">Thermal Maps&lt;/size&gt;</text></g><!--entity USER--><g id="elem_USER"><ellipse cx="1562.5" cy="950.5269" fill="#F8BBD0" rx="20" ry="20" style="stroke:#000000;stroke-width:2.5;"/><path d="M1562.5,970.5269 L1562.5,1038.0269 M1530,990.5269 L1595,990.5269 M1562.5,1038.0269 L1530,1075.5269 M1562.5,1038.0269 L1595,1075.5269 " fill="none" style="stroke:#000000;stroke-width:2.5;"/><text fill="#000000" font-family="Verdana" font-size="55" font-weight="bold" lengthAdjust="spacing" textLength="412.5" x="1276.25" y="1135.8223">&#128100; OPERATOR</text><text fill="#000000" font-family="Verdana" font-size="50" lengthAdjust="spacing" textLength="17.5" x="1276.25" y="1197.6387">&#160;</text><text fill="#000000" font-family="Verdana" font-size="40" lengthAdjust="spacing" textLength="302.5" x="1276.25" y="1248.3516">Mission Control</text><text fill="#000000" font-family="Verdana" font-size="50" lengthAdjust="spacing" textLength="572.5" x="1276.25" y="1307.0186">Real-time View&lt;/size&gt;</text></g><!--link SENSORS to DB--><g id="link_SENSORS_DB"><path d="M761.325,616.0269 C673.9,718.2269 580.1734,827.7766 496.5234,925.6016 " fill="none" id="SENSORS-to-DB" style="stroke:#000000;stroke-width:12.5;"/><polygon fill="#000000" points="486.775,937.0019,508.9979,926.4003,494.8987,927.5016,493.7974,913.4024,486.775,937.0019" style="stroke:#000000;stroke-width:12.5;"/><text fill="#000000" font-family="Verdana" font-size="50" font-weight="bold" lengthAdjust="spacing" textLength="315" x="811.325" y="743.2955">&#9312; COLLECT</text><text fill="#000000" font-family="Verdana" font-size="35" lengthAdjust="spacing" textLength="345" x="796.325" y="788.9815">Stream sensor data</text><text fill="#000000" font-family="Verdana" font-size="45" lengthAdjust="spacing" textLength="547.5" x="695.075" y="841.5718">2-10 Hz updates&lt;/size&gt;</text></g><!--link DB to USER--><g id="link_DB_USER"><path d="M633.075,1122.7769 C829.1,1122.7769 1067.675,1122.7769 1260.425,1122.7769 " fill="none" id="DB-to-USER" style="stroke:#000000;stroke-width:12.5;"/><polygon fill="#000000" points="1275.425,1122.7769,1252.925,1112.7769,1262.925,1122.7769,1252.925,1132.7769,1275.425,1122.7769" style="stroke:#000000;stroke-width:12.5;"/><text fill="#000000" font-family="Verdana" font-size="50" font-weight="bold" lengthAdjust="spacing" textLength="330" x="789.375" y="1005.5455">&#9313; ANALYZE</text><text fill="#000000" font-family="Verdana" font-size="35" lengthAdjust="spacing" textLength="330" x="789.375" y="1051.2315">Thermal heatmaps</text><text fill="#000000" font-family="Verdana" font-size="45" lengthAdjust="spacing" textLength="552.5" x="678.125" y="1103.8218">Risk assessment&lt;/size&gt;</text></g><!--reverse link SENSORS to USER--><g id="link_SENSORS_USER"><path d="M1205.0017,626.613 C1229.6767,650.963 1243,665.5019 1265,690.5269 C1329.075,763.5019 1391.55,850.5269 1442.575,927.1519 " fill="none" id="SENSORS-backto-USER" style="stroke:#000000;stroke-width:12.5;"/><polygon fill="#000000" points="1194.325,616.0769,1203.316,638.9988,1203.2222,624.857,1217.3641,624.7632,1194.325,616.0769" style="stroke:#000000;stroke-width:12.5;"/><text fill="#000000" font-family="Verdana" font-size="50" font-weight="bold" lengthAdjust="spacing" textLength="337.5" x="1488.65" y="743.2955">&#9314; CONTROL</text><text fill="#000000" font-family="Verdana" font-size="35" lengthAdjust="spacing" textLength="325" x="1494.9" y="788.9815">Start/stop mission</text><text fill="#000000" font-family="Verdana" font-size="45" lengthAdjust="spacing" textLength="532.5" x="1391.15" y="841.5718">Set parameters&lt;/size&gt;</text></g><rect fill="none" height="116.1499" id="_legend" rx="18.75" ry="18.75" style="stroke:#000000;stroke-width:2.5;" width="1470" x="225.575" y="1360.4083"/><text fill="#000000" font-family="Verdana" font-size="40" font-weight="bold" lengthAdjust="spacing" textLength="405" x="238.075" y="1413.1231">Real-Time System</text><text fill="#000000" font-family="Verdana" font-size="35" lengthAdjust="spacing" textLength="1445" x="238.075" y="1456.7095">Continuous sensor data streaming &#8594; Database storage &#8594; Live dashboard updates</text><!--SRC=[TL9TRjD047xVKmpjSyWFBLHLPCbsd1OfJKfia41-sSH3iegzQ-skYTe3y82GKE40KCGXE4yl04TWxCJ1H6IVl9xP-VxcaLrYXf2dN4XcvZn5w3q-PSoiXCovvXaa-9ONgHqgQKDnI-LEe-XghTRHKinN4es1q_tIxbNtZ34hB8tl6xgVF-au_Papu9R3C5NhVdlczDjbnM5idgeYWQDDOwzNDlx- -l7-ryzF40RZS38D6-snZEMci_lKYJ3BKNDRQ8pbPP69HDYRM4PBr1bFmUSPLMCvlV2stziXHy1DFHkEXqFVztp64c8tumRtgNpv00CtSY6C9bFt8ZX4vbePkz0OlXZ5ydd65mX3aQBvI-UAvwP9OE31ST3rWk0POtnkbTu7lli1a-jWwXBk8T0hOOnG4dmoNgkKj29FMrPGngy4hfjmByDWIcBFF6_GOQnMtqhKMhQSaipvDgjUbTN3tJVm9wDHu4V_W6-XJvpGQgJS3Kf3r4lpOjbhTJjmUGj5JdUirJ8Qtj9YiRG4LD7OXxe7T-oENhy9_WzLExX4RZDoaMGAio9HXhOmGsbhe6fugyW9fnQu3_MTL8sZwMHqI1NNjcsioY7RU1lB42rKIuuMzKuKIt61Ce6PibPb3EZiOY6aAeYe32AyCHQpvietUa-SCZeX2rMOffTWAdk5NC33-yymg7UJcEbojygV8_4EgTaiPuhhPDzquhPXoFu0]--></g></svg>