<?xml version="1.0" encoding="us-ascii" standalone="no"?><svg xmlns="http://www.w3.org/2000/svg" xmlns:xlink="http://www.w3.org/1999/xlink" contentStyleType="text/css" height="1560px" preserveAspectRatio="none" style="width:697px;height:1560px;background:#FFFFFF;" version="1.1" viewBox="0 0 697 1560" width="697px" zoomAndPan="magnify"><defs/><g><text fill="#000000" font-family="Arial Bold" font-size="36" font-weight="bold" lengthAdjust="spacing" textLength="332" x="178" y="49.8047">Mission Workflow</text><!--entity STEP1--><g id="elem_STEP1"><rect fill="#BBDEFB" height="184.8828" rx="7.5" ry="7.5" style="stroke:#1976D2;stroke-width:4.0;" width="164" x="285.5" y="75.3984"/><text fill="#000000" font-family="Arial Bold" font-size="20" font-weight="bold" lengthAdjust="spacing" textLength="13" x="295.5" y="104.7344">1</text><text fill="#000000" font-family="Arial Bold" font-size="20" lengthAdjust="spacing" textLength="6" x="295.5" y="128.2891">&#160;</text><text fill="#000000" font-family="Arial Bold" font-size="20" lengthAdjust="spacing" textLength="114" x="295.5" y="151.8438">CONFIGURE</text><text fill="#000000" font-family="Arial Bold" font-size="20" lengthAdjust="spacing" textLength="82" x="295.5" y="175.3984">MISSION</text><text fill="#000000" font-family="Arial Bold" font-size="20" lengthAdjust="spacing" textLength="6" x="295.5" y="198.9531">&#160;</text><text fill="#000000" font-family="Arial Bold" font-size="20" lengthAdjust="spacing" textLength="103" x="295.5" y="222.5078">Select area</text><text fill="#000000" font-family="Arial Bold" font-size="20" lengthAdjust="spacing" textLength="144" x="295.5" y="246.0625">Set parameters</text></g><!--entity STEP2--><g id="elem_STEP2"><rect fill="#90CAF9" height="184.8828" rx="7.5" ry="7.5" style="stroke:#1976D2;stroke-width:4.0;" width="134" x="300.5" y="320.2884"/><text fill="#000000" font-family="Arial Bold" font-size="20" font-weight="bold" lengthAdjust="spacing" textLength="13" x="310.5" y="349.6244">2</text><text fill="#000000" font-family="Arial Bold" font-size="20" lengthAdjust="spacing" textLength="6" x="310.5" y="373.1791">&#160;</text><text fill="#000000" font-family="Arial Bold" font-size="20" lengthAdjust="spacing" textLength="102" x="310.5" y="396.7338">GENERATE</text><text fill="#000000" font-family="Arial Bold" font-size="20" lengthAdjust="spacing" textLength="53" x="310.5" y="420.2884">PATH</text><text fill="#000000" font-family="Arial Bold" font-size="20" lengthAdjust="spacing" textLength="6" x="310.5" y="443.8431">&#160;</text><text fill="#000000" font-family="Arial Bold" font-size="20" lengthAdjust="spacing" textLength="114" x="310.5" y="467.3978">Lawnmower</text><text fill="#000000" font-family="Arial Bold" font-size="20" lengthAdjust="spacing" textLength="69" x="310.5" y="490.9525">pattern</text></g><!--entity STEP3--><g id="elem_STEP3"><rect fill="#64B5F6" height="161.3281" rx="7.5" ry="7.5" style="stroke:#1976D2;stroke-width:4.0;" width="120" x="307.5" y="565.1684"/><text fill="#000000" font-family="Arial Bold" font-size="20" font-weight="bold" lengthAdjust="spacing" textLength="13" x="317.5" y="594.5044">3</text><text fill="#000000" font-family="Arial Bold" font-size="20" lengthAdjust="spacing" textLength="6" x="317.5" y="618.0591">&#160;</text><text fill="#000000" font-family="Arial Bold" font-size="20" lengthAdjust="spacing" textLength="100" x="317.5" y="641.6138">NAVIGATE</text><text fill="#000000" font-family="Arial Bold" font-size="20" lengthAdjust="spacing" textLength="6" x="317.5" y="665.1684">&#160;</text><text fill="#000000" font-family="Arial Bold" font-size="20" lengthAdjust="spacing" textLength="75" x="317.5" y="688.7231">Drive to</text><text fill="#000000" font-family="Arial Bold" font-size="20" lengthAdjust="spacing" textLength="86" x="317.5" y="712.2778">waypoint</text></g><!--entity STEP4--><g id="elem_STEP4"><rect fill="#42A5F5" height="184.8828" rx="7.5" ry="7.5" style="stroke:#1976D2;stroke-width:4.0;" width="116" x="309.5" y="786.4984"/><text fill="#000000" font-family="Arial Bold" font-size="20" font-weight="bold" lengthAdjust="spacing" textLength="13" x="319.5" y="815.8344">4</text><text fill="#000000" font-family="Arial Bold" font-size="20" lengthAdjust="spacing" textLength="6" x="319.5" y="839.3891">&#160;</text><text fill="#000000" font-family="Arial Bold" font-size="20" lengthAdjust="spacing" textLength="90" x="319.5" y="862.9438">COLLECT</text><text fill="#000000" font-family="Arial Bold" font-size="20" lengthAdjust="spacing" textLength="56" x="319.5" y="886.4984">DATA</text><text fill="#000000" font-family="Arial Bold" font-size="20" lengthAdjust="spacing" textLength="6" x="319.5" y="910.0531">&#160;</text><text fill="#000000" font-family="Arial Bold" font-size="20" lengthAdjust="spacing" textLength="96" x="319.5" y="933.6078">Sensors +</text><text fill="#000000" font-family="Arial Bold" font-size="20" lengthAdjust="spacing" textLength="74" x="319.5" y="957.1625">Camera</text></g><!--entity STEP5--><g id="elem_STEP5"><rect fill="#2196F3" height="184.8828" rx="7.5" ry="7.5" style="stroke:#1976D2;stroke-width:4.0;" width="116" x="309.5" y="1031.3784"/><text fill="#000000" font-family="Arial Bold" font-size="20" font-weight="bold" lengthAdjust="spacing" textLength="13" x="319.5" y="1060.7144">5</text><text fill="#000000" font-family="Arial Bold" font-size="20" lengthAdjust="spacing" textLength="6" x="319.5" y="1084.2691">&#160;</text><text fill="#000000" font-family="Arial Bold" font-size="20" lengthAdjust="spacing" textLength="79" x="319.5" y="1107.8238">STREAM</text><text fill="#000000" font-family="Arial Bold" font-size="20" lengthAdjust="spacing" textLength="41" x="319.5" y="1131.3784">LIVE</text><text fill="#000000" font-family="Arial Bold" font-size="20" lengthAdjust="spacing" textLength="6" x="319.5" y="1154.9331">&#160;</text><text fill="#000000" font-family="Arial Bold" font-size="20" lengthAdjust="spacing" textLength="96" x="319.5" y="1178.4878">Real-time</text><text fill="#000000" font-family="Arial Bold" font-size="20" lengthAdjust="spacing" textLength="77" x="319.5" y="1202.0425">updates</text></g><!--entity STEP6--><g id="elem_STEP6"><rect fill="#1976D2" height="161.3281" rx="7.5" ry="7.5" style="stroke:#1976D2;stroke-width:4.0;" width="124" x="305.5" y="1276.2584"/><text fill="#000000" font-family="Arial Bold" font-size="20" font-weight="bold" lengthAdjust="spacing" textLength="13" x="315.5" y="1305.5944">6</text><text fill="#000000" font-family="Arial Bold" font-size="20" lengthAdjust="spacing" textLength="6" x="315.5" y="1329.1491">&#160;</text><text fill="#000000" font-family="Arial Bold" font-size="20" lengthAdjust="spacing" textLength="104" x="315.5" y="1352.7038">COMPLETE</text><text fill="#000000" font-family="Arial Bold" font-size="20" lengthAdjust="spacing" textLength="6" x="315.5" y="1376.2584">&#160;</text><text fill="#000000" font-family="Arial Bold" font-size="20" lengthAdjust="spacing" textLength="85" x="315.5" y="1399.8131">Generate</text><text fill="#000000" font-family="Arial Bold" font-size="20" lengthAdjust="spacing" textLength="84" x="315.5" y="1423.3678">heatmap</text></g><g id="elem_GMN13"><path d="M11,607.8584 L11,683.8116 A0,0 0 0 0 11,683.8116 L272,683.8116 A0,0 0 0 0 272,683.8116 L272,649.8284 L307.17,645.8284 L272,641.8284 L272,617.8584 L262,607.8584 L11,607.8584 A0,0 0 0 0 11,607.8584 " fill="#FFFFFF" style="stroke:#000000;stroke-width:1.0;"/><path d="M262,607.8584 L262,617.8584 L272,617.8584 L262,607.8584 " fill="#FFFFFF" style="stroke:#000000;stroke-width:1.0;"/><text fill="#000000" font-family="Arial Bold" font-size="18" font-weight="bold" lengthAdjust="spacing" textLength="136" x="17" y="630.2608">AUTONOMOUS</text><text fill="#000000" font-family="Arial Bold" font-size="16" lengthAdjust="spacing" textLength="89" x="17" y="649.5264">Repeats for</text><text fill="#000000" font-family="Arial Bold" font-size="22" lengthAdjust="spacing" textLength="240" x="17" y="674.1709">each waypoint&lt;/size&gt;</text></g><g id="elem_GMN16"><path d="M461,1085.8384 L461,1119.8184 L425.59,1123.8184 L461,1127.8184 L461,1161.7916 A0,0 0 0 0 461,1161.7916 L690,1161.7916 A0,0 0 0 0 690,1161.7916 L690,1095.8384 L680,1085.8384 L461,1085.8384 A0,0 0 0 0 461,1085.8384 " fill="#FFFFFF" style="stroke:#000000;stroke-width:1.0;"/><path d="M680,1085.8384 L680,1095.8384 L690,1095.8384 L680,1085.8384 " fill="#FFFFFF" style="stroke:#000000;stroke-width:1.0;"/><text fill="#000000" font-family="Arial Bold" font-size="18" font-weight="bold" lengthAdjust="spacing" textLength="102" x="467" y="1108.2408">REAL-TIME</text><text fill="#000000" font-family="Arial Bold" font-size="16" lengthAdjust="spacing" textLength="88" x="467" y="1127.5064">Live sensor</text><text fill="#000000" font-family="Arial Bold" font-size="22" lengthAdjust="spacing" textLength="208" x="467" y="1152.1509">monitoring&lt;/size&gt;</text></g><!--link STEP1 to STEP2--><g id="link_STEP1_STEP2"><path d="M367.5,260.6684 C367.5,280.1484 367.5,294.7084 367.5,314.1784 " fill="none" id="STEP1-to-STEP2" style="stroke:#1976D2;stroke-width:5.0;"/><polygon fill="#1976D2" points="367.5,320.1784,371.5,311.1784,367.5,315.1784,363.5,311.1784,367.5,320.1784" style="stroke:#1976D2;stroke-width:5.0;"/></g><!--link STEP2 to STEP3--><g id="link_STEP2_STEP3"><path d="M367.5,505.3984 C367.5,525.0584 367.5,539.6784 367.5,558.8584 " fill="none" id="STEP2-to-STEP3" style="stroke:#1976D2;stroke-width:5.0;"/><polygon fill="#1976D2" points="367.5,564.8584,371.5,555.8584,367.5,559.8584,363.5,555.8584,367.5,564.8584" style="stroke:#1976D2;stroke-width:5.0;"/></g><!--link STEP3 to STEP4--><g id="link_STEP3_STEP4"><path d="M367.5,726.6884 C367.5,745.8684 367.5,760.4984 367.5,780.1684 " fill="none" id="STEP3-to-STEP4" style="stroke:#1976D2;stroke-width:5.0;"/><polygon fill="#1976D2" points="367.5,786.1684,371.5,777.1684,367.5,781.1684,363.5,777.1684,367.5,786.1684" style="stroke:#1976D2;stroke-width:5.0;"/></g><!--link STEP4 to STEP5--><g id="link_STEP4_STEP5"><path d="M367.5,971.7584 C367.5,991.2384 367.5,1005.7984 367.5,1025.2684 " fill="none" id="STEP4-to-STEP5" style="stroke:#1976D2;stroke-width:5.0;"/><polygon fill="#1976D2" points="367.5,1031.2684,371.5,1022.2684,367.5,1026.2684,363.5,1022.2684,367.5,1031.2684" style="stroke:#1976D2;stroke-width:5.0;"/></g><!--link STEP5 to STEP6--><g id="link_STEP5_STEP6"><path d="M367.5,1216.4884 C367.5,1236.1484 367.5,1250.7684 367.5,1269.9484 " fill="none" id="STEP5-to-STEP6" style="stroke:#1976D2;stroke-width:5.0;"/><polygon fill="#1976D2" points="367.5,1275.9484,371.5,1266.9484,367.5,1270.9484,363.5,1266.9484,367.5,1275.9484" style="stroke:#1976D2;stroke-width:5.0;"/></g><rect fill="none" height="99.5078" id="_legend" rx="7.5" ry="7.5" style="stroke:#000000;stroke-width:1.0;" width="251" x="218.5" y="1447.5866"/><text fill="#000000" font-family="Arial Bold" font-size="18" font-weight="bold" lengthAdjust="spacing" textLength="120" x="223.5" y="1469.9889">Key Features</text><text fill="#000000" font-family="Arial Bold" font-size="16" lengthAdjust="spacing" textLength="241" x="223.5" y="1489.2545">&#8226; Fully autonomous navigation</text><text fill="#000000" font-family="Arial Bold" font-size="14" lengthAdjust="spacing" textLength="182" x="223.5" y="1506.1647">&#8226; Obstacle detection active</text><text fill="#000000" font-family="Arial Bold" font-size="14" lengthAdjust="spacing" textLength="178" x="223.5" y="1522.653">&#8226; Complete area coverage</text><text fill="#000000" font-family="Arial Bold" font-size="14" lengthAdjust="spacing" textLength="231" x="223.5" y="1539.1413">&#8226; Live dashboard updates&lt;/size&gt;</text><!--SRC=[TLJRZjem47ttLqoNDogq9P2qL0WfG49HkQmWktt9Yo43M2GsiWreMrNgj_JJ-YLrOfQ4RZSlaUUCpvapCyaxlSCCuP1InWbHUyOFLD8C4jpGOwf3mVMIVKTmdF-3Csfk-vBH5FeYJIf9lfJY7EtOUizHAN3_XGOY5H9gpSv7R-WGefbE4RghNbSPlSyjhpTbIZ71uPkG-qqgpjtx7EbrxrUzQgKIrvhohRdyWu1v-dIztqfnvCb58MY5JZYqc909oblbCbuMsowYfVaFnNbXIIL72KsN_2IarBwhrvlrUinZFfZFml7eSH74V3fUBiVpMHvTOcfoWKga-K53KJngbEeEg89b53mqeTRl3uEmVylhMDvHC0iMVcHe7_peInwPq3FFn1bbR5gX3HM_KZbGwtmO-67dbgfbgMR-qtXKKCLyADa9GOkOd-dpGJ2khoGjg7djlXjwjoJj5v-JIJ2838CV-TOYLq8gU6ymOqtIAr4RQct7TqFtbiYrHCje4VXJOsVyL5IqG9esDCimviT3GZMM7NAXvZGxNjYw9V9UAfe-J09hQuHcIkPkp7T8TKOFLmwlt3dRz4OYphpHitqZjdlLM8lOPbHZRM9zLMCkiILMOnuXN6Y453SQnER2bo_JTTERdth-OpIVpQVpnsLrnuiic-Br5dWmFXHiX2m0fEiTl4piSeiWJo2NkuXAjjrTLTrNggRhaqOqdWPlYaxorL35M0iW4vnf8HdVlbPCSPiVLa9haRtI-ehF41e3HudgJRa_ltv3U4pJPw17BRZ8n541foUsfThy28haF6U-KfgkpUWJy_siSmYeUPtmcZ4GsI4rOF6zmLgSp2viIxZmbL2rMmag4xXiMSMJDKF-0W00]--></g></svg>