<?xml version="1.0" encoding="us-ascii" standalone="no"?><svg xmlns="http://www.w3.org/2000/svg" xmlns:xlink="http://www.w3.org/1999/xlink" contentStyleType="text/css" height="1831px" preserveAspectRatio="none" style="width:610px;height:1831px;background:#FFFFFF;" version="1.1" viewBox="0 0 610 1831" width="610px" zoomAndPan="magnify"><defs/><g><text fill="#000000" font-family="Arial Bold" font-size="40" font-weight="bold" lengthAdjust="spacing" textLength="577" x="15" y="53.6719">Mission Execution Sequence</text><!--entity USER--><g id="elem_USER"><ellipse cx="403.86" cy="87.1094" fill="#F8BBD0" rx="8" ry="8" style="stroke:#C2185B;stroke-width:3.0;"/><path d="M403.86,95.1094 L403.86,122.1094 M390.86,103.1094 L416.86,103.1094 M403.86,122.1094 L390.86,137.1094 M403.86,122.1094 L416.86,137.1094 " fill="none" style="stroke:#C2185B;stroke-width:3.0;"/><text fill="#000000" font-family="Arial Bold" font-size="28" font-weight="bold" lengthAdjust="spacing" textLength="28" x="347.36" y="168.1797">&#128100;</text><text fill="#000000" font-family="Arial Bold" font-size="20" lengthAdjust="spacing" textLength="6" x="347.36" y="193.4219">&#160;</text><text fill="#000000" font-family="Arial Bold" font-size="20" font-weight="bold" lengthAdjust="spacing" textLength="113" x="347.36" y="216.9766">OPERATOR</text></g><!--entity PLAN--><g id="elem_PLAN"><rect fill="#BBDEFB" height="177.9492" rx="10" ry="10" style="stroke:#1976D2;stroke-width:5.0;" width="81" x="363.36" y="280.6794"/><text fill="#000000" font-family="Arial Bold" font-size="36" font-weight="bold" lengthAdjust="spacing" textLength="36" x="373.36" y="318.4841">&#9312;</text><text fill="#000000" font-family="Arial Bold" font-size="22" lengthAdjust="spacing" textLength="7" x="373.36" y="347.3473">&#160;</text><text fill="#000000" font-family="Arial Bold" font-size="22" font-weight="bold" lengthAdjust="spacing" textLength="59" x="373.36" y="373.2575">PLAN</text><text fill="#000000" font-family="Arial Bold" font-size="22" lengthAdjust="spacing" textLength="7" x="373.36" y="399.1677">&#160;</text><text fill="#000000" font-family="Arial Bold" font-size="22" lengthAdjust="spacing" textLength="61" x="373.36" y="425.0778">Select</text><text fill="#000000" font-family="Arial Bold" font-size="22" lengthAdjust="spacing" textLength="48" x="373.36" y="450.988">Area</text></g><!--entity PATH--><g id="elem_PATH"><rect fill="#90CAF9" height="177.9492" rx="10" ry="10" style="stroke:#1976D2;stroke-width:5.0;" width="115" x="346.36" y="517.6794"/><text fill="#000000" font-family="Arial Bold" font-size="36" font-weight="bold" lengthAdjust="spacing" textLength="36" x="356.36" y="555.4841">&#9313;</text><text fill="#000000" font-family="Arial Bold" font-size="22" lengthAdjust="spacing" textLength="7" x="356.36" y="584.3473">&#160;</text><text fill="#000000" font-family="Arial Bold" font-size="22" font-weight="bold" lengthAdjust="spacing" textLength="61" x="356.36" y="610.2575">PATH</text><text fill="#000000" font-family="Arial Bold" font-size="22" lengthAdjust="spacing" textLength="7" x="356.36" y="636.1677">&#160;</text><text fill="#000000" font-family="Arial Bold" font-size="22" lengthAdjust="spacing" textLength="95" x="356.36" y="662.0778">Generate</text><text fill="#000000" font-family="Arial Bold" font-size="22" lengthAdjust="spacing" textLength="45" x="356.36" y="687.988">Grid</text></g><!--entity DRIVE--><g id="elem_DRIVE"><rect fill="#64B5F6" height="177.9492" rx="10" ry="10" style="stroke:#1976D2;stroke-width:5.0;" width="111" x="348.36" y="754.6794"/><text fill="#000000" font-family="Arial Bold" font-size="36" font-weight="bold" lengthAdjust="spacing" textLength="36" x="358.36" y="792.4841">&#9314;</text><text fill="#000000" font-family="Arial Bold" font-size="22" lengthAdjust="spacing" textLength="7" x="358.36" y="821.3473">&#160;</text><text fill="#000000" font-family="Arial Bold" font-size="22" font-weight="bold" lengthAdjust="spacing" textLength="67" x="358.36" y="847.2575">DRIVE</text><text fill="#000000" font-family="Arial Bold" font-size="22" lengthAdjust="spacing" textLength="7" x="358.36" y="873.1677">&#160;</text><text fill="#000000" font-family="Arial Bold" font-size="22" lengthAdjust="spacing" textLength="91" x="358.36" y="899.0778">Navigate</text><text fill="#000000" font-family="Arial Bold" font-size="22" lengthAdjust="spacing" textLength="51" x="358.36" y="924.988">Auto</text></g><!--entity SCAN--><g id="elem_SCAN"><rect fill="#42A5F5" height="177.9492" rx="10" ry="10" style="stroke:#1976D2;stroke-width:5.0;" width="104" x="351.86" y="1082.6794"/><text fill="#000000" font-family="Arial Bold" font-size="36" font-weight="bold" lengthAdjust="spacing" textLength="36" x="361.86" y="1120.4841">&#9315;</text><text fill="#000000" font-family="Arial Bold" font-size="22" lengthAdjust="spacing" textLength="7" x="361.86" y="1149.3473">&#160;</text><text fill="#000000" font-family="Arial Bold" font-size="22" font-weight="bold" lengthAdjust="spacing" textLength="62" x="361.86" y="1175.2575">SCAN</text><text fill="#000000" font-family="Arial Bold" font-size="22" lengthAdjust="spacing" textLength="7" x="361.86" y="1201.1677">&#160;</text><text fill="#000000" font-family="Arial Bold" font-size="22" lengthAdjust="spacing" textLength="84" x="361.86" y="1227.0778">Capture</text><text fill="#000000" font-family="Arial Bold" font-size="22" lengthAdjust="spacing" textLength="48" x="361.86" y="1252.988">Data</text></g><!--entity STREAM--><g id="elem_STREAM"><rect fill="#2196F3" height="177.9492" rx="10" ry="10" style="stroke:#1976D2;stroke-width:5.0;" width="112" x="347.86" y="1319.6794"/><text fill="#000000" font-family="Arial Bold" font-size="36" font-weight="bold" lengthAdjust="spacing" textLength="36" x="357.86" y="1357.4841">&#9316;</text><text fill="#000000" font-family="Arial Bold" font-size="22" lengthAdjust="spacing" textLength="7" x="357.86" y="1386.3473">&#160;</text><text fill="#000000" font-family="Arial Bold" font-size="22" font-weight="bold" lengthAdjust="spacing" textLength="92" x="357.86" y="1412.2575">STREAM</text><text fill="#000000" font-family="Arial Bold" font-size="22" lengthAdjust="spacing" textLength="7" x="357.86" y="1438.1677">&#160;</text><text fill="#000000" font-family="Arial Bold" font-size="22" lengthAdjust="spacing" textLength="41" x="357.86" y="1464.0778">Live</text><text fill="#000000" font-family="Arial Bold" font-size="22" lengthAdjust="spacing" textLength="50" x="357.86" y="1489.988">Feed</text></g><!--entity DONE--><g id="elem_DONE"><rect fill="#1976D2" height="177.9492" rx="10" ry="10" style="stroke:#1976D2;stroke-width:5.0;" width="96" x="355.86" y="1647.6794"/><text fill="#000000" font-family="Arial Bold" font-size="36" font-weight="bold" lengthAdjust="spacing" textLength="36" x="365.86" y="1685.4841">&#9317;</text><text fill="#000000" font-family="Arial Bold" font-size="22" lengthAdjust="spacing" textLength="7" x="365.86" y="1714.3473">&#160;</text><text fill="#000000" font-family="Arial Bold" font-size="22" font-weight="bold" lengthAdjust="spacing" textLength="65" x="365.86" y="1740.2575">DONE</text><text fill="#000000" font-family="Arial Bold" font-size="22" lengthAdjust="spacing" textLength="7" x="365.86" y="1766.1677">&#160;</text><text fill="#000000" font-family="Arial Bold" font-size="22" lengthAdjust="spacing" textLength="57" x="365.86" y="1792.0778">Show</text><text fill="#000000" font-family="Arial Bold" font-size="22" lengthAdjust="spacing" textLength="76" x="365.86" y="1817.988">Results</text></g><g id="elem_GMN15"><path d="M317.86,967.3194 L317.86,1047.9834 A0,0 0 0 0 317.86,1047.9834 L489.86,1047.9834 A0,0 0 0 0 489.86,1047.9834 L489.86,977.3194 L479.86,967.3194 L407.86,967.3194 L403.86,932.7694 L399.86,967.3194 L317.86,967.3194 A0,0 0 0 0 317.86,967.3194 " fill="#FFFFFF" style="stroke:#000000;stroke-width:1.0;"/><path d="M479.86,967.3194 L479.86,977.3194 L489.86,977.3194 L479.86,967.3194 " fill="#FFFFFF" style="stroke:#000000;stroke-width:1.0;"/><text fill="#000000" font-family="Arial Bold" font-size="20" font-weight="bold" lengthAdjust="spacing" textLength="151" x="323.86" y="991.6553">AUTONOMOUS</text><text fill="#000000" font-family="Arial Bold" font-size="20" lengthAdjust="spacing" textLength="129" x="323.86" y="1015.21">Loop for 12+</text><text fill="#000000" font-family="Arial Bold" font-size="20" lengthAdjust="spacing" textLength="96" x="323.86" y="1038.7647">waypoints</text></g><g id="elem_GMN18"><path d="M319.86,1532.3194 L319.86,1612.9834 A0,0 0 0 0 319.86,1612.9834 L487.86,1612.9834 A0,0 0 0 0 487.86,1612.9834 L487.86,1542.3194 L477.86,1532.3194 L407.86,1532.3194 L403.86,1497.7694 L399.86,1532.3194 L319.86,1532.3194 A0,0 0 0 0 319.86,1532.3194 " fill="#FFFFFF" style="stroke:#000000;stroke-width:1.0;"/><path d="M477.86,1532.3194 L477.86,1542.3194 L487.86,1542.3194 L477.86,1532.3194 " fill="#FFFFFF" style="stroke:#000000;stroke-width:1.0;"/><text fill="#000000" font-family="Arial Bold" font-size="20" font-weight="bold" lengthAdjust="spacing" textLength="147" x="325.86" y="1556.6553">LIVE UPDATES</text><text fill="#000000" font-family="Arial Bold" font-size="20" lengthAdjust="spacing" textLength="105" x="325.86" y="1580.21">Dashboard</text><text fill="#000000" font-family="Arial Bold" font-size="20" lengthAdjust="spacing" textLength="107" x="325.86" y="1603.7647">shows data</text></g><!--link USER to PLAN--><g id="link_USER_PLAN"><path d="M403.86,221.6294 C403.86,240.4294 403.86,254.8794 403.86,274.3994 " fill="none" id="USER-to-PLAN" style="stroke:#1976D2;stroke-width:6.0;"/><polygon fill="#1976D2" points="403.86,280.3994,407.86,271.3994,403.86,275.3994,399.86,271.3994,403.86,280.3994" style="stroke:#1976D2;stroke-width:6.0;"/><text fill="#000000" font-family="Arial Bold" font-size="20" font-weight="bold" lengthAdjust="spacing" textLength="102" x="337.36" y="258.7753">Configure</text></g><!--link PLAN to PATH--><g id="link_PLAN_PATH"><path d="M403.86,458.8394 C403.86,477.9894 403.86,492.2394 403.86,511.3894 " fill="none" id="PLAN-to-PATH" style="stroke:#1976D2;stroke-width:6.0;"/><polygon fill="#1976D2" points="403.86,517.3894,407.86,508.3894,403.86,512.3894,399.86,508.3894,403.86,517.3894" style="stroke:#1976D2;stroke-width:6.0;"/><text fill="#000000" font-family="Arial Bold" font-size="20" font-weight="bold" lengthAdjust="spacing" textLength="93" x="341.86" y="495.9953">Generate</text></g><!--link PATH to DRIVE--><g id="link_PATH_DRIVE"><path d="M403.86,695.8394 C403.86,714.9894 403.86,729.2394 403.86,748.3894 " fill="none" id="PATH-to-DRIVE" style="stroke:#1976D2;stroke-width:6.0;"/><polygon fill="#1976D2" points="403.86,754.3894,407.86,745.3894,403.86,749.3894,399.86,745.3894,403.86,754.3894" style="stroke:#1976D2;stroke-width:6.0;"/><text fill="#000000" font-family="Arial Bold" font-size="20" font-weight="bold" lengthAdjust="spacing" textLength="80" x="348.36" y="732.9953">Execute</text></g><!--link DRIVE to SCAN--><g id="link_DRIVE_SCAN"><path d="M348,860.7894 C266.68,888.9294 130.14,950.0994 176.11,1032.1594 C213.39,1098.6994 291.1336,1135.3566 345.9936,1154.4566 " fill="none" id="DRIVE-to-SCAN" style="stroke:#1976D2;stroke-width:6.0;"/><polygon fill="#1976D2" points="351.66,1156.4294,344.4756,1149.6926,346.938,1154.7854,341.8452,1157.2478,351.66,1156.4294" style="stroke:#1976D2;stroke-width:6.0;"/><text fill="#000000" font-family="Arial Bold" font-size="20" font-weight="bold" lengthAdjust="spacing" textLength="78" x="177.36" y="1003.4953">At each</text><text fill="#000000" font-family="Arial Bold" font-size="20" lengthAdjust="spacing" textLength="141" x="145.86" y="1027.05">waypoint&lt;/b&gt;</text></g><!--link SCAN to STREAM--><g id="link_SCAN_STREAM"><path d="M403.86,1260.8394 C403.86,1279.9894 403.86,1294.2394 403.86,1313.3894 " fill="none" id="SCAN-to-STREAM" style="stroke:#1976D2;stroke-width:6.0;"/><polygon fill="#1976D2" points="403.86,1319.3894,407.86,1310.3894,403.86,1314.3894,399.86,1310.3894,403.86,1319.3894" style="stroke:#1976D2;stroke-width:6.0;"/><text fill="#000000" font-family="Arial Bold" font-size="20" font-weight="bold" lengthAdjust="spacing" textLength="104" x="336.36" y="1297.9953">Real-time</text></g><!--link STREAM to DONE--><g id="link_STREAM_DONE"><path d="M347.4,1432.0994 C297.76,1456.1394 228.71,1498.7094 197.61,1560.1594 C158.34,1637.7294 277.1521,1693.1441 349.7421,1719.1741 " fill="none" id="STREAM-to-DONE" style="stroke:#1976D2;stroke-width:6.0;"/><polygon fill="#1976D2" points="355.39,1721.1994,348.2684,1714.3962,350.6835,1719.5117,345.568,1721.9267,355.39,1721.1994" style="stroke:#1976D2;stroke-width:6.0;"/><text fill="#000000" font-family="Arial Bold" font-size="20" font-weight="bold" lengthAdjust="spacing" textLength="98" x="167.36" y="1580.4953">Complete</text></g><!--SRC=[TPD9Zjf058RtFiLBiunQ3MP8qqAMR6mdaHXQDcJ5fh0BA66gI5NHdK4vH9yWyyLoWXmXDM1CWiEAUl-lxqr-p-G6xp3i2qIeK-2L1Cc0a_L6GauupYHXr774bj0zucW7ELwXGo5ZHcLAFc1mc_NY12cgpmag8615VcRoEMUFimt9jXGB0Rr_fI4h68T6g_-Y5xgE8uaiC0oMta2eV7UTfZScGgYg87g7iuEk3rByze1fXWStskCDRfRUUSqPuZbyT43z0fHjrvmTQ7vC4xLZDmwjndYE-T_fgtXLSTT4gmbOLsAXd6AkX_Bfl02KISNyJmNnRH24pSiAXcxhjXlKLj3MU0kzEat6lVL-VtxwSJQ31LrG9K_leyIVJHCTkW8aO9v6oIclOwPJOTezxzVJbqlA_SYVbCyK5-hBM52VOsI8MeI6uaLnK4_yMaFqPw_AvqkiveOaLlyuoIrJoT3eDuT-tAzdVhjaXidhDr7vdg07iZPG_o2PWHeT6hrEq8rxzTJlbzHqMFK-H7jvu8eP8ccRroeqEgxVZRlro9gbfBCayiTbO4GU5376sBPkHMYuhNulRjSpVzOqFvsSUaytx7514opKFGhRkbAhipBVmBKvz6lFxkzENzcGqHLPgmRD4PbuvT8RCQvoNTQamoUJdR1nsGEr9Xi-kSpCZCcNW56sMT17z7xF29N6RlJARUTX_0b6nRKaEuizAbLstUInaTs-mCVi3cKImv99oNR0LhP8SrgwWlbiEfcEf_FKU7LqnDWULkgyMkvp4oYB4mwcEMZQ1TEMKa97kjtvVUZFeWeR8h5PChLCyn9gHG9ozHbLq3y0]--></g></svg>