<?xml version="1.0" encoding="us-ascii" standalone="no"?><svg xmlns="http://www.w3.org/2000/svg" xmlns:xlink="http://www.w3.org/1999/xlink" contentStyleType="text/css" height="1325px" preserveAspectRatio="none" style="width:1884px;height:1325px;background:#FFFFFF;" version="1.1" viewBox="0 0 1884 1325" width="1884px" zoomAndPan="magnify"><defs/><g><text fill="#000000" font-family="Verdana" font-size="22" font-weight="bold" lengthAdjust="spacing" textLength="362" x="756.5" y="37.1182">Pyroscope Network Topology</text><!--cluster NETWORK--><g id="cluster_NETWORK"><path d="M1429.8919,968.4981 C1432.4106,962.0505 1438.58,960.7077 1442.7873,966.7553 C1445.2387,959.7691 1448.8932,958.3878 1454.7802,963.2893 C1457.9071,957.6674 1464.297,956.1843 1467.8234,962.8658 C1470.68,956.0364 1474.6597,955.8904 1479.8698,960.3556 C1482.6317,953.7692 1486.7145,954.082 1491.1641,958.6462 C1496.5317,953.057 1501.8069,952.4284 1505.4541,960.4521 C1509.4563,955.4319 1514.9965,956.5989 1517.697,961.9837 C1521.9218,957.6614 1526.9028,957.8924 1529.2219,964.0745 C1533.4637,959.6743 1539.5081,959.4033 1541.3976,966.554 C1550.7854,958.8257 1557.9324,962.0664 1560,973.6173 C1560.8895,973.4814 1561.2402,973.8506 1561.188,974.7248 C1567.7053,977.8584 1567.1029,982.8539 1562.2391,986.9649 C1568.5792,990.1003 1568.4917,995.9923 1563.4523,1000.1729 C1570.7161,1004.824 1568.6999,1010.5496 1562.6164,1014.4175 C1568.085,1017.6842 1568.5649,1022.0578 1563.0662,1025.7594 C1569.2421,1030.3443 1569.4833,1034.4257 1563.2094,1039.1436 C1569.5111,1043.399 1569.8115,1048.5234 1563.014,1052.5884 C1567.4709,1056.7949 1566.5957,1061.5044 1561.3055,1064.2875 C1567.8111,1074.2655 1563.7261,1081.0618 1553,1083.6473 C1553.4046,1083.8043 1553.4814,1084.0936 1553.1285,1084.383 C1550.6761,1091.1272 1544.8241,1091.5294 1540.9922,1085.7162 C1538.7334,1090.8751 1532.9625,1092.5115 1529.2114,1087.4335 C1526.2077,1093.7465 1522.0481,1095.1124 1516.6066,1090.1614 C1513.4446,1096.7081 1508.4364,1096.5729 1503.7622,1091.8914 C1501.1242,1096.7791 1496.9232,1098.4207 1492.8182,1093.5339 C1487.118,1098.8896 1482.7274,1097.83 1478.8857,1091.3468 C1475.2628,1097.5552 1469.3622,1095.7858 1466.646,1090.3903 C1461.9043,1095.4041 1456.7284,1095.529 1454.097,1088.2381 C1450.0729,1093.1582 1445.2201,1092.1368 1442.4084,1086.8497 C1430.6648,1094.0458 1423.8525,1089.2368 1422,1076.6473 C1422.6914,1076.6812 1423.0585,1077.0584 1422.6596,1077.7465 C1415.6885,1073.7981 1414.9233,1069.5751 1420.6235,1063.7794 C1414.7183,1060.8126 1414.7087,1056.7591 1419.6035,1052.7899 C1412.0928,1049.8323 1412.3878,1043.4369 1417.4983,1038.606 C1409.9621,1036.5752 1409.8589,1032.3417 1414.0727,1026.8787 C1408.4683,1021.4269 1409.7534,1017.3196 1416.1114,1013.7214 C1409.031,1009.0042 1411.8137,1002.252 1418.3104,999.6576 C1413.2962,995.2315 1414.2572,989.1232 1421.246,987.6255 C1412.8534,976.6337 1415.2062,969.4203 1429,966.6173 C1430.0359,966.731 1430.5506,967.5807 1429.8919,968.4981 " fill="#FFFFFF" style="stroke:#000000;stroke-width:1.0;"/><text fill="#000000" font-family="Verdana" font-size="14" font-weight="bold" lengthAdjust="spacing" textLength="107" x="1437.5" y="985.6925">WiFi Network</text><text fill="#000000" font-family="Verdana" font-size="14" font-weight="bold" lengthAdjust="spacing" textLength="115" x="1433.5" y="1002.7071">10.18.61.0/24</text></g><!--cluster JETSON--><g id="cluster_JETSON"><polygon fill="#FFFFFF" points="527,729.0773,537,719.0773,1112,719.0773,1112,1080.6373,1102,1090.6373,527,1090.6373,527,729.0773" style="stroke:#000000;stroke-width:1.0;"/><line style="stroke:#000000;stroke-width:1.0;" x1="1102" x2="1112" y1="729.0773" y2="719.0773"/><line style="stroke:#000000;stroke-width:1.0;" x1="527" x2="1102" y1="729.0773" y2="729.0773"/><line style="stroke:#000000;stroke-width:1.0;" x1="1102" x2="1102" y1="729.0773" y2="1090.6373"/><text fill="#000000" font-family="Verdana" font-size="14" font-weight="bold" lengthAdjust="spacing" textLength="165" x="733" y="746.1525">Jetson Nano (Robot)</text><text fill="#000000" font-family="Verdana" font-size="14" font-weight="bold" lengthAdjust="spacing" textLength="95" x="768" y="763.1671">10.18.61.50</text></g><!--cluster SERVER--><g id="cluster_SERVER"><polygon fill="#FFFFFF" points="21,483.5673,31,473.5673,487,473.5673,487,875.6173,477,885.6173,21,885.6173,21,483.5673" style="stroke:#000000;stroke-width:1.0;"/><line style="stroke:#000000;stroke-width:1.0;" x1="477" x2="487" y1="483.5673" y2="473.5673"/><line style="stroke:#000000;stroke-width:1.0;" x1="21" x2="477" y1="483.5673" y2="483.5673"/><line style="stroke:#000000;stroke-width:1.0;" x1="477" x2="477" y1="483.5673" y2="885.6173"/><text fill="#000000" font-family="Verdana" font-size="14" font-weight="bold" lengthAdjust="spacing" textLength="172" x="164" y="500.6425">Remote PC (Backend)</text><text fill="#000000" font-family="Verdana" font-size="14" font-weight="bold" lengthAdjust="spacing" textLength="95" x="202.5" y="517.6571">10.18.61.71</text></g><!--cluster MAC--><g id="cluster_MAC"><polygon fill="#FFFFFF" points="1375,68.7373,1385,58.7373,1585,58.7373,1585,364.1873,1575,374.1873,1375,374.1873,1375,68.7373" style="stroke:#000000;stroke-width:1.0;"/><line style="stroke:#000000;stroke-width:1.0;" x1="1575" x2="1585" y1="68.7373" y2="58.7373"/><line style="stroke:#000000;stroke-width:1.0;" x1="1375" x2="1575" y1="68.7373" y2="68.7373"/><line style="stroke:#000000;stroke-width:1.0;" x1="1575" x2="1575" y1="68.7373" y2="374.1873"/><text fill="#000000" font-family="Verdana" font-size="14" font-weight="bold" lengthAdjust="spacing" textLength="96" x="1428" y="85.8125">Mac (Client)</text><text fill="#000000" font-family="Verdana" font-size="14" font-weight="bold" lengthAdjust="spacing" textLength="105" x="1423.5" y="102.8271">10.18.61.100</text></g><!--entity ROUTER--><g id="elem_ROUTER"><polygon fill="#FFFFFF" points="1430,1021.6173,1440,1011.6173,1552,1011.6173,1552,1065.6466,1542,1075.6466,1430,1075.6466,1430,1021.6173" style="stroke:#000000;stroke-width:1.0;"/><line style="stroke:#000000;stroke-width:1.0;" x1="1542" x2="1552" y1="1021.6173" y2="1011.6173"/><line style="stroke:#000000;stroke-width:1.0;" x1="1430" x2="1542" y1="1021.6173" y2="1021.6173"/><line style="stroke:#000000;stroke-width:1.0;" x1="1542" x2="1542" y1="1021.6173" y2="1075.6466"/><text fill="#000000" font-family="Verdana" font-size="14" lengthAdjust="spacing" textLength="30" x="1445" y="1045.6925">WiFi</text><text fill="#000000" font-family="Verdana" font-size="14" lengthAdjust="spacing" textLength="5" x="1475" y="1045.6925">&#160;</text><text fill="#000000" font-family="Verdana" font-size="14" lengthAdjust="spacing" textLength="47" x="1480" y="1045.6925">Router</text><text fill="#000000" font-family="Verdana" font-size="14" lengthAdjust="spacing" textLength="78" x="1445" y="1062.7071">10.18.61.1</text></g><!--entity ROSCORE--><g id="elem_ROSCORE"><rect fill="#FFFFFF" height="81.0439" rx="2.5" ry="2.5" style="stroke:#000000;stroke-width:1.0;" width="123" x="550.5" y="785.0773"/><rect fill="#FFFFFF" height="10" style="stroke:#000000;stroke-width:1.0;" width="15" x="653.5" y="790.0773"/><rect fill="#FFFFFF" height="2" style="stroke:#000000;stroke-width:1.0;" width="4" x="651.5" y="792.0773"/><rect fill="#FFFFFF" height="2" style="stroke:#000000;stroke-width:1.0;" width="4" x="651.5" y="796.0773"/><text fill="#000000" font-family="Verdana" font-size="14" lengthAdjust="spacing" textLength="83" x="565.5" y="819.1525">ROS Master</text><text fill="#000000" font-family="Verdana" font-size="14" lengthAdjust="spacing" textLength="50" x="565.5" y="836.1671">roscore</text><text fill="#000000" font-family="Verdana" font-size="14" lengthAdjust="spacing" textLength="79" x="565.5" y="853.1818">port 11311</text></g><!--entity NAV_NODES--><g id="elem_NAV_NODES"><rect fill="#FFFFFF" height="64.0293" rx="2.5" ry="2.5" style="stroke:#000000;stroke-width:1.0;" width="161" x="708.5" y="793.5873"/><rect fill="#FFFFFF" height="10" style="stroke:#000000;stroke-width:1.0;" width="15" x="849.5" y="798.5873"/><rect fill="#FFFFFF" height="2" style="stroke:#000000;stroke-width:1.0;" width="4" x="847.5" y="800.5873"/><rect fill="#FFFFFF" height="2" style="stroke:#000000;stroke-width:1.0;" width="4" x="847.5" y="804.5873"/><text fill="#000000" font-family="Verdana" font-size="14" lengthAdjust="spacing" textLength="121" x="723.5" y="827.6625">Navigation Nodes</text><text fill="#000000" font-family="Verdana" font-size="14" lengthAdjust="spacing" textLength="67" x="723.5" y="844.6771">(4 nodes)</text></g><!--entity SENSORS--><g id="elem_SENSORS"><rect fill="#FFFFFF" height="47.0146" rx="2.5" ry="2.5" style="stroke:#000000;stroke-width:1.0;" width="164" x="905" y="802.0973"/><rect fill="#FFFFFF" height="10" style="stroke:#000000;stroke-width:1.0;" width="15" x="1049" y="807.0973"/><rect fill="#FFFFFF" height="2" style="stroke:#000000;stroke-width:1.0;" width="4" x="1047" y="809.0973"/><rect fill="#FFFFFF" height="2" style="stroke:#000000;stroke-width:1.0;" width="4" x="1047" y="813.0973"/><text fill="#000000" font-family="Verdana" font-size="14" lengthAdjust="spacing" textLength="124" x="920" y="836.1725">Sensor Publishers</text></g><!--entity ROS_GRAPH--><g id="elem_ROS_GRAPH"><path d="M739.5,1030.6273 C739.5,1020.6273 789,1020.6273 789,1020.6273 C789,1020.6273 838.5,1020.6273 838.5,1030.6273 L838.5,1056.642 C838.5,1066.642 789,1066.642 789,1066.642 C789,1066.642 739.5,1066.642 739.5,1056.642 L739.5,1030.6273 " fill="#FFFFFF" style="stroke:#000000;stroke-width:1.0;"/><path d="M739.5,1030.6273 C739.5,1040.6273 789,1040.6273 789,1040.6273 C789,1040.6273 838.5,1040.6273 838.5,1030.6273 " fill="none" style="stroke:#000000;stroke-width:1.0;"/><text fill="#000000" font-family="Verdana" font-size="14" lengthAdjust="spacing" textLength="79" x="749.5" y="1058.7025">ROS Graph</text></g><!--entity BACKEND_API--><g id="elem_BACKEND_API"><rect fill="#FFFFFF" height="64.0293" rx="2.5" ry="2.5" style="stroke:#000000;stroke-width:1.0;" width="144" x="45" y="539.5673"/><rect fill="#FFFFFF" height="10" style="stroke:#000000;stroke-width:1.0;" width="15" x="169" y="544.5673"/><rect fill="#FFFFFF" height="2" style="stroke:#000000;stroke-width:1.0;" width="4" x="167" y="546.5673"/><rect fill="#FFFFFF" height="2" style="stroke:#000000;stroke-width:1.0;" width="4" x="167" y="550.5673"/><text fill="#000000" font-family="Verdana" font-size="14" lengthAdjust="spacing" textLength="104" x="60" y="573.6425">FastAPI Server</text><text fill="#000000" font-family="Verdana" font-size="14" lengthAdjust="spacing" textLength="93" x="60" y="590.6571">0.0.0.0:8000</text></g><!--entity BRIDGE--><g id="elem_BRIDGE"><rect fill="#FFFFFF" height="64.0293" rx="2.5" ry="2.5" style="stroke:#000000;stroke-width:1.0;" width="220" x="224" y="539.5673"/><rect fill="#FFFFFF" height="10" style="stroke:#000000;stroke-width:1.0;" width="15" x="424" y="544.5673"/><rect fill="#FFFFFF" height="2" style="stroke:#000000;stroke-width:1.0;" width="4" x="422" y="546.5673"/><rect fill="#FFFFFF" height="2" style="stroke:#000000;stroke-width:1.0;" width="4" x="422" y="550.5673"/><text fill="#000000" font-family="Verdana" font-size="14" lengthAdjust="spacing" textLength="135" x="239" y="573.6425">ROS Sensor Bridge</text><text fill="#000000" font-family="Verdana" font-size="14" lengthAdjust="spacing" textLength="180" x="239" y="590.6571">(connects to ROS Master)</text></g><!--entity POSTGRES--><g id="elem_POSTGRES"><path d="M66.5,804.0873 C66.5,794.0873 117,794.0873 117,794.0873 C117,794.0873 167.5,794.0873 167.5,804.0873 L167.5,847.1166 C167.5,857.1166 117,857.1166 117,857.1166 C117,857.1166 66.5,857.1166 66.5,847.1166 L66.5,804.0873 " fill="#FFFFFF" style="stroke:#000000;stroke-width:1.0;"/><path d="M66.5,804.0873 C66.5,814.0873 117,814.0873 117,814.0873 C117,814.0873 167.5,814.0873 167.5,804.0873 " fill="none" style="stroke:#000000;stroke-width:1.0;"/><text fill="#000000" font-family="Verdana" font-size="14" lengthAdjust="spacing" textLength="81" x="76.5" y="832.1625">PostgreSQL</text><text fill="#000000" font-family="Verdana" font-size="14" lengthAdjust="spacing" textLength="70" x="76.5" y="849.1771">port 5432</text></g><!--entity FILES--><g id="elem_FILES"><path d="M222.5,789.5873 L263.5,789.5873 A3.75,3.75 0 0 1 266,792.0873 L273,810.5873 L339.5,810.5873 A2.5,2.5 0 0 1 342,813.0873 L342,859.1166 A2.5,2.5 0 0 1 339.5,861.6166 L222.5,861.6166 A2.5,2.5 0 0 1 220,859.1166 L220,792.0873 A2.5,2.5 0 0 1 222.5,789.5873 " fill="#FFFFFF" style="stroke:#000000;stroke-width:1.0;"/><line style="stroke:#000000;stroke-width:1.0;" x1="220" x2="273" y1="810.5873" y2="810.5873"/><text fill="#000000" font-family="Verdana" font-size="14" lengthAdjust="spacing" textLength="91" x="230" y="831.6625">sensor_data/</text><text fill="#000000" font-family="Verdana" font-size="14" lengthAdjust="spacing" textLength="92" x="230" y="848.6771">(shared files)</text></g><!--entity BROWSER--><g id="elem_BROWSER"><rect fill="#FFFFFF" height="64.0293" rx="2.5" ry="2.5" style="stroke:#000000;stroke-width:1.0;" width="143" x="1398.5" y="124.7373"/><rect fill="#FFFFFF" height="10" style="stroke:#000000;stroke-width:1.0;" width="15" x="1521.5" y="129.7373"/><rect fill="#FFFFFF" height="2" style="stroke:#000000;stroke-width:1.0;" width="4" x="1519.5" y="131.7373"/><rect fill="#FFFFFF" height="2" style="stroke:#000000;stroke-width:1.0;" width="4" x="1519.5" y="135.7373"/><text fill="#000000" font-family="Verdana" font-size="14" lengthAdjust="spacing" textLength="92" x="1413.5" y="158.8125">Web Browser</text><text fill="#000000" font-family="Verdana" font-size="14" lengthAdjust="spacing" textLength="103" x="1413.5" y="175.8271">localhost:5173</text></g><!--entity VITE--><g id="elem_VITE"><rect fill="#FFFFFF" height="64.0293" rx="2.5" ry="2.5" style="stroke:#000000;stroke-width:1.0;" width="151" x="1398.5" y="286.1573"/><rect fill="#FFFFFF" height="10" style="stroke:#000000;stroke-width:1.0;" width="15" x="1529.5" y="291.1573"/><rect fill="#FFFFFF" height="2" style="stroke:#000000;stroke-width:1.0;" width="4" x="1527.5" y="293.1573"/><rect fill="#FFFFFF" height="2" style="stroke:#000000;stroke-width:1.0;" width="4" x="1527.5" y="297.1573"/><text fill="#000000" font-family="Verdana" font-size="14" lengthAdjust="spacing" textLength="111" x="1413.5" y="320.2325">Vite Dev Server</text><text fill="#000000" font-family="Verdana" font-size="14" lengthAdjust="spacing" textLength="70" x="1413.5" y="337.2471">port 5173</text></g><g id="elem_GMN30"><path d="M1139,781.1073 L1139,870.1039 L1421,870.1039 L1421,791.1073 L1411,781.1073 L1139,781.1073 " fill="#FFFFFF" style="stroke:#000000;stroke-width:1.0;"/><path d="M1411,781.1073 L1411,791.1073 L1421,791.1073 L1411,781.1073 " fill="#FFFFFF" style="stroke:#000000;stroke-width:1.0;"/><text fill="#000000" font-family="Verdana" font-size="13" font-weight="bold" lengthAdjust="spacing" textLength="84" x="1145" y="799.1771">ROS Master</text><text fill="#000000" font-family="Verdana" font-size="13" lengthAdjust="spacing" textLength="261" x="1145" y="814.9764">- Manages topic publishers/subscribers</text><text fill="#000000" font-family="Verdana" font-size="13" lengthAdjust="spacing" textLength="111" x="1145" y="830.7758">- Runs on Jetson</text><text fill="#000000" font-family="Verdana" font-size="13" lengthAdjust="spacing" textLength="197" x="1145" y="846.5751">- ROS_MASTER_URI exported</text><text fill="#000000" font-family="Verdana" font-size="13" lengthAdjust="spacing" textLength="114" x="1155" y="862.3744">on all ROS nodes</text></g><g id="elem_GMN33"><path d="M514.5,527.0773 L514.5,616.0739 L713.5,616.0739 L713.5,537.0773 L703.5,527.0773 L514.5,527.0773 " fill="#FFFFFF" style="stroke:#000000;stroke-width:1.0;"/><path d="M703.5,527.0773 L703.5,537.0773 L713.5,537.0773 L703.5,527.0773 " fill="#FFFFFF" style="stroke:#000000;stroke-width:1.0;"/><text fill="#000000" font-family="Verdana" font-size="13" font-weight="bold" lengthAdjust="spacing" textLength="94" x="520.5" y="545.1471">Backend API</text><text fill="#000000" font-family="Verdana" font-size="13" lengthAdjust="spacing" textLength="168" x="520.5" y="560.9464">- Listens on 0.0.0.0:8000</text><text fill="#000000" font-family="Verdana" font-size="13" lengthAdjust="spacing" textLength="99" x="530.5" y="576.7458">(all interfaces)</text><text fill="#000000" font-family="Verdana" font-size="13" lengthAdjust="spacing" textLength="178" x="520.5" y="592.5451">- CORS enabled for Mac IP</text><text fill="#000000" font-family="Verdana" font-size="13" lengthAdjust="spacing" textLength="171" x="520.5" y="608.3444">- Serves /api/* endpoints</text></g><g id="elem_GMN36"><path d="M1655,265.7673 L1655,314.1673 L1549.85,318.1673 L1655,322.1673 L1655,370.5632 A0,0 0 0 0 1655,370.5632 L1877,370.5632 A0,0 0 0 0 1877,370.5632 L1877,275.7673 L1867,265.7673 L1655,265.7673 A0,0 0 0 0 1655,265.7673 " fill="#FFFFFF" style="stroke:#000000;stroke-width:1.0;"/><path d="M1867,265.7673 L1867,275.7673 L1877,275.7673 L1867,265.7673 " fill="#FFFFFF" style="stroke:#000000;stroke-width:1.0;"/><text fill="#000000" font-family="Verdana" font-size="13" font-weight="bold" lengthAdjust="spacing" textLength="65" x="1661" y="283.8371">Frontend</text><text fill="#000000" font-family="Verdana" font-size="13" lengthAdjust="spacing" textLength="147" x="1661" y="299.6364">- Development server</text><text fill="#000000" font-family="Verdana" font-size="13" lengthAdjust="spacing" textLength="165" x="1661" y="315.4358">- Production: static build</text><text fill="#000000" font-family="Verdana" font-size="13" lengthAdjust="spacing" textLength="107" x="1671" y="331.2351">served by nginx</text><text fill="#000000" font-family="Verdana" font-size="13" lengthAdjust="spacing" textLength="185" x="1661" y="347.0344">- API_BASE_URL configured</text><text fill="#000000" font-family="Verdana" font-size="13" lengthAdjust="spacing" textLength="191" x="1671" y="362.8337">to point to 10.18.61.71:8000</text></g><!--link NAV_NODES to ROS_GRAPH--><g id="link_NAV_NODES_ROS_GRAPH"><path d="M789,858.0173 C789,902.2473 789,975.7973 789,1014.3973 " fill="none" id="NAV_NODES-to-ROS_GRAPH" style="stroke:#000000;stroke-width:1.0;"/><polygon fill="#000000" points="789,1020.3973,793,1011.3973,789,1015.3973,785,1011.3973,789,1020.3973" style="stroke:#000000;stroke-width:1.0;"/></g><!--link SENSORS to ROS_GRAPH--><g id="link_SENSORS_ROS_GRAPH"><path d="M966.18,849.3073 C928.06,890.9073 851.5036,974.4337 813.5936,1015.8037 " fill="none" id="SENSORS-to-ROS_GRAPH" style="stroke:#000000;stroke-width:1.0;"/><polygon fill="#000000" points="809.54,1020.2273,818.5695,1016.2943,812.918,1016.541,812.6714,1010.8895,809.54,1020.2273" style="stroke:#000000;stroke-width:1.0;"/></g><!--link ROSCORE to ROS_GRAPH--><g id="link_ROSCORE_ROS_GRAPH"><path d="M644.67,866.4773 C681.73,911.7073 737.0572,979.2363 766.8172,1015.5563 " fill="none" id="ROSCORE-to-ROS_GRAPH" style="stroke:#000000;stroke-width:1.0;"/><polygon fill="#000000" points="770.62,1020.1973,768.0099,1010.7006,767.451,1016.3298,761.8218,1015.771,770.62,1020.1973" style="stroke:#000000;stroke-width:1.0;"/><text fill="#000000" font-family="Verdana" font-size="13" lengthAdjust="spacing" textLength="58" x="706.81" y="923.6871">Manages</text><text fill="#000000" font-family="Verdana" font-size="13" lengthAdjust="spacing" textLength="39" x="716.31" y="939.4864">topics</text></g><!--link BRIDGE to FILES--><g id="link_BRIDGE_FILES"><path d="M327.39,603.9873 C317.49,651.0973 300.0745,754.8957 289.6945,804.2657 " fill="none" id="BRIDGE-to-FILES" style="stroke:#000000;stroke-width:1.0;"/><polygon fill="#000000" points="288.46,810.1373,294.2262,802.1529,289.4888,805.2443,286.3973,800.5069,288.46,810.1373" style="stroke:#000000;stroke-width:1.0;"/><text fill="#000000" font-family="Verdana" font-size="13" lengthAdjust="spacing" textLength="36" x="319.34" y="676.1471">Write</text></g><!--link BACKEND_API to FILES--><g id="link_BACKEND_API_FILES"><path d="M137.44,603.9873 C168.09,651.0973 222.528,734.738 254.648,784.108 " fill="none" id="BACKEND_API-to-FILES" style="stroke:#000000;stroke-width:1.0;"/><polygon fill="#000000" points="257.92,789.1373,256.3648,779.412,255.1933,784.9462,249.6591,783.7747,257.92,789.1373" style="stroke:#000000;stroke-width:1.0;"/><text fill="#000000" font-family="Verdana" font-size="13" lengthAdjust="spacing" textLength="33" x="195.08" y="676.1471">Read</text></g><!--link BACKEND_API to POSTGRES--><g id="link_BACKEND_API_POSTGRES"><path d="M117,603.9873 C117,652.5473 117,739.2673 117,787.5873 " fill="none" id="BACKEND_API-to-POSTGRES" style="stroke:#000000;stroke-width:1.0;"/><polygon fill="#000000" points="117,793.5873,121,784.5873,117,788.5873,113,784.5873,117,793.5873" style="stroke:#000000;stroke-width:1.0;"/></g><!--link BROWSER to VITE--><g id="link_BROWSER_VITE"><path d="M1470.79,189.2473 C1471.49,217.1973 1472.3597,251.8092 1473.0597,279.7392 " fill="none" id="BROWSER-to-VITE" style="stroke:#000000;stroke-width:1.0;"/><polygon fill="#000000" points="1473.21,285.7373,1476.9833,276.6399,1473.0847,280.7389,1468.9858,276.8403,1473.21,285.7373" style="stroke:#000000;stroke-width:1.0;"/><text fill="#000000" font-family="Verdana" font-size="13" lengthAdjust="spacing" textLength="59" x="1472.88" y="232.8371">localhost</text></g><!--link JETSON to ROUTER--><g id="link_JETSON_ROUTER"><path d="M1112.127,887.4703 C1112.1809,887.5895 1112.2351,887.7085 1112.2896,887.8274 C1112.3986,888.0652 1112.5089,888.3023 1112.6205,888.5386 C1113.0671,889.4841 1113.5344,890.4182 1114.0237,891.339 C1115.9805,895.022 1118.2863,898.4911 1121,901.6173 C1200.75,993.5073 1347.1,1025.7473 1429.83,1036.8873 " fill="none" id="JETSON-ROUTER" style="stroke:#000000;stroke-width:1.0;"/><text fill="#000000" font-family="Verdana" font-size="13" lengthAdjust="spacing" textLength="28" x="1179.89" y="923.6871">WiFi</text><text fill="#000000" font-family="Verdana" font-size="13" lengthAdjust="spacing" textLength="67" x="1160.39" y="939.4864">2.4/5 GHz</text></g><!--link SERVER to ROUTER--><g id="link_SERVER_ROUTER"><path d="M487.0922,604.056 C487.1673,604.1971 487.243,604.3378 487.3194,604.4781 C489.7644,608.9679 492.9225,613.0698 497,616.0773 C581.61,678.4473 1362.48,631.0073 1439,703.0773 C1525.17,784.2473 1508.98,943.6873 1497.35,1011.2173 " fill="none" id="SERVER-ROUTER" style="stroke:#000000;stroke-width:1.0;"/><text fill="#000000" font-family="Verdana" font-size="13" lengthAdjust="spacing" textLength="47" x="1512.16" y="823.1671">WiFi or</text><text fill="#000000" font-family="Verdana" font-size="13" lengthAdjust="spacing" textLength="56" x="1507.66" y="838.9664">Ethernet</text></g><!--link MAC to ROUTER--><g id="link_MAC_ROUTER"><path d="M1585.1215,190.1981 C1585.1669,190.3971 1585.2123,190.5969 1585.2578,190.7974 C1586.7141,197.2129 1588.2575,204.3523 1589.795,212.0223 C1595.945,242.7023 1602,281.8723 1602,317.1673 C1602,317.1673 1602,317.1673 1602,826.5973 C1602,898.9173 1552.18,971.2973 1519.3,1011.1973 " fill="none" id="MAC-ROUTER" style="stroke:#000000;stroke-width:1.0;"/><text fill="#000000" font-family="Verdana" font-size="13" lengthAdjust="spacing" textLength="28" x="1603" y="577.1471">WiFi</text></g><!--link BRIDGE to ROSCORE--><g id="link_BRIDGE_ROSCORE"><path d="M415.79,604.0773 C426.61,608.1573 437.56,612.2473 448,616.0773 C485.61,629.8873 503.6,618.8673 533,646.0773 C573.17,683.2573 592.6557,738.7537 602.6257,778.9537 " fill="none" id="BRIDGE-to-ROSCORE" style="stroke:#000000;stroke-width:1.0;stroke-dasharray:7.0,7.0;"/><polygon fill="#000000" points="604.07,784.7773,605.7859,775.0791,602.8664,779.9243,598.0212,777.0048,604.07,784.7773" style="stroke:#000000;stroke-width:1.0;"/><text fill="#000000" font-family="Verdana" font-size="13" lengthAdjust="spacing" textLength="75" x="572.36" y="660.1471">ROS Topics</text><text fill="#000000" font-family="Verdana" font-size="13" lengthAdjust="spacing" textLength="81" x="569.36" y="675.9464">TCP 11311+</text><text fill="#000000" font-family="Verdana" font-size="13" lengthAdjust="spacing" textLength="44" x="587.86" y="691.7458">roscpp</text></g><!--link VITE to BACKEND_API--><g id="link_VITE_BACKEND_API"><path d="M1398.28,319.8573 C1157.45,323.2273 412.87,342.8773 206,457.5673 C172.69,476.0373 150.4209,507.3775 135.4909,533.9275 " fill="none" id="VITE-to-BACKEND_API" style="stroke:#000000;stroke-width:1.0;stroke-dasharray:7.0,7.0;"/><polygon fill="#000000" points="132.55,539.1573,140.4479,533.2732,135.0008,534.7991,133.4748,529.352,132.55,539.1573" style="stroke:#000000;stroke-width:1.0;"/><text fill="#000000" font-family="Verdana" font-size="13" lengthAdjust="spacing" textLength="73" x="421.96" y="414.6371">HTTP REST</text><text fill="#000000" font-family="Verdana" font-size="13" lengthAdjust="spacing" textLength="161" x="377.96" y="430.4364">http://10.18.61.71:8000</text><text fill="#000000" font-family="Verdana" font-size="13" lengthAdjust="spacing" textLength="35" x="440.96" y="446.2358">JSON</text></g><!--link BACKEND_API to ROSCORE--><g id="link_BACKEND_API_ROSCORE"><path d="M175.92,604.0873 C185.78,608.5673 196.05,612.7673 206,616.0773 C273.82,638.6373 297.47,619.9473 364,646.0773 C402.11,661.0473 405.87,675.8273 442,695.0773 C449.73,699.1973 452.52,698.5273 460,703.0773 C498.97,726.7773 534.5819,755.3408 563.8219,780.7608 " fill="none" id="BACKEND_API-to-ROSCORE" style="stroke:#000000;stroke-width:1.0;stroke-dasharray:7.0,7.0;"/><polygon fill="#000000" points="568.35,784.6973,564.1822,775.7738,564.5766,781.4169,558.9335,781.8112,568.35,784.6973" style="stroke:#000000;stroke-width:1.0;"/><text fill="#000000" font-family="Verdana" font-size="13" lengthAdjust="spacing" textLength="64" x="451.5" y="660.1471">roslaunch</text><text fill="#000000" font-family="Verdana" font-size="13" lengthAdjust="spacing" textLength="47" x="460" y="675.9464">SSH or</text><text fill="#000000" font-family="Verdana" font-size="13" lengthAdjust="spacing" textLength="81" x="443" y="691.7458">ROS service</text></g><!--link ROSCORE to GMN30--><g id="link_ROSCORE_GMN30"><path d="M622.91,784.6673 C635.97,744.7473 662.12,686.2673 708.5,659.5773 C784.39,615.9073 1021.06,627.4273 1102.5,659.5773 C1163.92,683.8273 1216.58,740.4773 1248.24,780.8473 " fill="none" id="ROSCORE-GMN30" style="stroke:#000000;stroke-width:1.0;stroke-dasharray:7.0,7.0;"/></g><!--link BACKEND_API to GMN33--><g id="link_BACKEND_API_GMN33"><path d="M129.63,539.1573 C145.5,503.4573 176.5,447.9273 223.5,423.8773 C273.75,398.1573 425.79,401.2473 477.5,423.8773 C525.16,444.7273 563.58,491.3473 587.38,526.6673 " fill="none" id="BACKEND_API-GMN33" style="stroke:#000000;stroke-width:1.0;stroke-dasharray:7.0,7.0;"/></g><rect fill="none" height="201.1611" id="_legend" rx="7.5" ry="7.5" style="stroke:#000000;stroke-width:1.0;" width="261" x="1604" y="1111.6373"/><text fill="#000000" font-family="Verdana" font-size="14" font-weight="bold" lengthAdjust="spacing" textLength="119" x="1609" y="1130.7125">Port Summary:</text><text fill="#000000" font-family="Verdana" font-size="14" lengthAdjust="spacing" textLength="46" x="1614" y="1149.7271">Device</text><text fill="#000000" font-family="Verdana" font-size="14" lengthAdjust="spacing" textLength="51" x="1670" y="1149.7271">Service</text><text fill="#000000" font-family="Verdana" font-size="14" lengthAdjust="spacing" textLength="28" x="1763" y="1149.7271">Port</text><text fill="#000000" font-family="Verdana" font-size="14" lengthAdjust="spacing" textLength="44" x="1614" y="1166.7418">Jetson</text><text fill="#000000" font-family="Verdana" font-size="14" lengthAdjust="spacing" textLength="83" x="1670" y="1166.7418">ROS Master</text><text fill="#000000" font-family="Verdana" font-size="14" lengthAdjust="spacing" textLength="56" x="1763" y="1166.7418">11311+</text><text fill="#000000" font-family="Verdana" font-size="14" lengthAdjust="spacing" textLength="46" x="1614" y="1183.7564">Server</text><text fill="#000000" font-family="Verdana" font-size="14" lengthAdjust="spacing" textLength="53" x="1670" y="1183.7564">FastAPI</text><text fill="#000000" font-family="Verdana" font-size="14" lengthAdjust="spacing" textLength="36" x="1763" y="1183.7564">8000</text><text fill="#000000" font-family="Verdana" font-size="14" lengthAdjust="spacing" textLength="46" x="1614" y="1200.7711">Server</text><text fill="#000000" font-family="Verdana" font-size="14" lengthAdjust="spacing" textLength="81" x="1670" y="1200.7711">PostgreSQL</text><text fill="#000000" font-family="Verdana" font-size="14" lengthAdjust="spacing" textLength="36" x="1763" y="1200.7711">5432</text><text fill="#000000" font-family="Verdana" font-size="14" lengthAdjust="spacing" textLength="27" x="1614" y="1217.7857">Mac</text><text fill="#000000" font-family="Verdana" font-size="14" lengthAdjust="spacing" textLength="60" x="1670" y="1217.7857">Vite Dev</text><text fill="#000000" font-family="Verdana" font-size="14" lengthAdjust="spacing" textLength="36" x="1763" y="1217.7857">5173</text><line style="stroke:#000000;stroke-width:1.0;" x1="1609" x2="1824" y1="1135.652" y2="1135.652"/><line style="stroke:#000000;stroke-width:1.0;" x1="1609" x2="1824" y1="1152.6666" y2="1152.6666"/><line style="stroke:#000000;stroke-width:1.0;" x1="1609" x2="1824" y1="1169.6813" y2="1169.6813"/><line style="stroke:#000000;stroke-width:1.0;" x1="1609" x2="1824" y1="1186.6959" y2="1186.6959"/><line style="stroke:#000000;stroke-width:1.0;" x1="1609" x2="1824" y1="1203.7105" y2="1203.7105"/><line style="stroke:#000000;stroke-width:1.0;" x1="1609" x2="1824" y1="1220.7252" y2="1220.7252"/><line style="stroke:#000000;stroke-width:1.0;" x1="1609" x2="1609" y1="1135.652" y2="1220.7252"/><line style="stroke:#000000;stroke-width:1.0;" x1="1665" x2="1665" y1="1135.652" y2="1220.7252"/><line style="stroke:#000000;stroke-width:1.0;" x1="1758" x2="1758" y1="1135.652" y2="1220.7252"/><line style="stroke:#000000;stroke-width:1.0;" x1="1824" x2="1824" y1="1135.652" y2="1220.7252"/><text fill="#000000" font-family="Verdana" font-size="14" lengthAdjust="spacing" textLength="5" x="1609" y="1236.8004">&#160;</text><text fill="#000000" font-family="Verdana" font-size="14" font-weight="bold" lengthAdjust="spacing" textLength="187" x="1609" y="1253.815">Network Requirements:</text><text fill="#000000" font-family="Verdana" font-size="14" lengthAdjust="spacing" textLength="202" x="1609" y="1270.8297">- All devices on same subnet</text><text fill="#000000" font-family="Verdana" font-size="14" lengthAdjust="spacing" textLength="251" x="1609" y="1287.8443">- Static IP recommended for Server</text><text fill="#000000" font-family="Verdana" font-size="14" lengthAdjust="spacing" textLength="241" x="1609" y="1304.859">- Firewall allow ports 8000, 11311</text><!--SRC=[RLRRKjj847tNL_JgPHtluWkNJSeFgJ96W0dOMac15rUvnjBOdeeyeyn8EEnw_trxBXB2G8egMTtjFdtwz26_bLkwer3aX77FArcPKmXVf52fA2ZCQBaNyWSaeX2vsBnuNfgBAWF_YLspEhhWmq5l-ANtrx0tw9-U-q0Kp8BaQHvzWtyzm1ykCkfg8b6LLBPAXYO_cdzFWiZxp_DixXqjbU0m8rn09n8hKNvgrLmCJD5TaCJpcUkHYbqXEEKb-D4yXWUYJ1ypYQGBNWXPmd1uDgmRnfDv51oNpiWpsv2IwTu8H2ruvzp0Lv_iNEF7vMn-5SJ7XJ7bIaW8grNEr9PAPTBZO1RF8vkSaPAiYA8MtuqanRP6iho9nk6jPzAQ3d1oyhKLr37tTHz4t3Xl8p02_u5mij5pbA9WgV9VAOxeJfIux0bqBadwW_AiJV7deHiWUWoYznHV8xtZS0enbS-Qva7F_1jz6GpiRYx7as_1x6g9IH-jnz5rALcsmULqKi4vJKi5fO3NzLdEBwFfrKrmn64eLBcHDFxxtgtsulpirAI7ypYvYTo6rYBFg0HVcNvBNT_7TcfB9CrWpV9wiTVJUomnDRQVeTAyrJG-ILPItuPV9tkR4r6IVPpIG6h8Vo0fT2OvGqBQh0yTUm_ZoNlEd-WA2HDxfGdFHKhoBP8mkXX-FdCypPzmNyTbZuWShkXpiojBLrtrE4s2UcvJRn3hjtgcfeqHpk-D8RXzuPqepvtXIIRs_CHTik4Cxtt1Jtld_GkukVt7zvoOFam4WSW2D2F9AJRJ17oOvsiKuwB8MMhFj8t4RQxN-zeSnCZgBJ7gN_1a4beJ-CDQGr7udfbLrxJNXdMtIH82RYrPy6rP5gD-ltKTHkaBVeUJ-rwxyAWvDib9nTFjWiVnhPbIuy4TFhCK5OLwmFL8jjcM8DPlRAdRVRs4RjUyEW5tps3E6Oh6RlggMgbKiXK-kzIeuWgG8UkbzKiqXuTnZ8mklqTJeB-q6cXceg2pIPwR2pIcvw4hW4PuZFFulBjTvo60RngmzmonMn1jWt3DEheLupZTcgHuXwveeXsEShBAzOMYIUXRcOOkQaIie4yArkzYMbO8_8ftG7EwDZYDkYt0Qocm5yyQT7WJD1V5Jb-9ChVX0g4KMMKaDG9LeinIM5KihqaokHciNe1l6F_bYd3kvUKu3f3MUotADTjKiY4MRSq0rG_7AcfXp-b6Vp0qEzYXljQusks8V1avx0UD7UM33x4L4ZwPn8EBkx-VXvQPuWUh_2R96W8-r6v-08tdVVpLRF63DjecHU_c08t578olODI1h-qYeZyh9gccMesQ1Onn_vaPn4X44VoF2CeO3Q1UjYL_6eAaw6XOdZbDnErzNUDNxxMOy5ViGIjQcKd-j1DhWYsptly0]--></g></svg>