<?xml version="1.0" encoding="us-ascii" standalone="no"?><svg xmlns="http://www.w3.org/2000/svg" xmlns:xlink="http://www.w3.org/1999/xlink" contentStyleType="text/css" height="2304px" preserveAspectRatio="none" style="width:2109px;height:2304px;background:#FFFFFF;" version="1.1" viewBox="0 0 2109 2304" width="2109px" zoomAndPan="magnify"><defs/><g><text fill="#000000" font-family="Verdana" font-size="22" font-weight="bold" lengthAdjust="spacing" textLength="674" x="716.25" y="37.1182">Pyroscope Autonomous Mission - Data Flow Sequence</text><rect fill="#F8BBD0" height="2244.3794" style="stroke:#000000;stroke-width:1.0;" width="272.5" x="144.5" y="53.7373"/><text fill="#000000" font-family="Verdana" font-size="13" font-weight="bold" lengthAdjust="spacing" textLength="88" x="236.75" y="66.8071">Mac (Client)</text><rect fill="#FFF9C4" height="2244.3794" style="stroke:#000000;stroke-width:1.0;" width="406" x="514.5" y="53.7373"/><text fill="#000000" font-family="Verdana" font-size="13" font-weight="bold" lengthAdjust="spacing" textLength="161" x="637" y="66.8071">Remote PC (Backend)</text><rect fill="#BBDEFB" height="2244.3794" style="stroke:#000000;stroke-width:1.0;" width="1100.5" x="966" y="53.7373"/><text fill="#000000" font-family="Verdana" font-size="13" font-weight="bold" lengthAdjust="spacing" textLength="109" x="1461.75" y="66.8071">Jetson (Robot)</text><rect fill="#FFFFFF" height="1139.5713" style="stroke:#000000;stroke-width:1.0;" width="1594" x="498.5" y="555.7417"/><rect fill="#FFFFFF" height="826.7788" style="stroke:#000000;stroke-width:1.0;" width="1574" x="508.5" y="626.1396"/><rect fill="#FFFFFF" height="122.9966" style="stroke:#000000;stroke-width:1.0;" width="1112.5" x="960" y="1115.3267"/><rect fill="#FFFFFF" height="225.3945" style="stroke:#000000;stroke-width:1.0;" width="735" x="15" y="1753.1123"/><line style="stroke:#000000;stroke-width:1.0;" x1="59" x2="59" y1="136.5513" y2="2217.1021"/><line style="stroke:#000000;stroke-width:1.0;" x1="202.5" x2="202.5" y1="136.5513" y2="2217.1021"/><line style="stroke:#000000;stroke-width:1.0;" x1="361" x2="361" y1="136.5513" y2="2217.1021"/><line style="stroke:#000000;stroke-width:1.0;" x1="564.5" x2="564.5" y1="136.5513" y2="2217.1021"/><line style="stroke:#000000;stroke-width:1.0;" x1="744.5" x2="744.5" y1="136.5513" y2="2217.1021"/><line style="stroke:#000000;stroke-width:1.0;" x1="857.5" x2="857.5" y1="136.5513" y2="2217.1021"/><line style="stroke:#000000;stroke-width:1.0;" x1="1019" x2="1019" y1="136.5513" y2="2217.1021"/><line style="stroke:#000000;stroke-width:1.0;" x1="1185" x2="1185" y1="136.5513" y2="2217.1021"/><line style="stroke:#000000;stroke-width:1.0;" x1="1378.5" x2="1378.5" y1="136.5513" y2="2217.1021"/><line style="stroke:#000000;stroke-width:1.0;" x1="1501" x2="1501" y1="136.5513" y2="2217.1021"/><line style="stroke:#000000;stroke-width:1.0;" x1="1721.5" x2="1721.5" y1="136.5513" y2="2217.1021"/><line style="stroke:#000000;stroke-width:1.0;" x1="1985.5" x2="1985.5" y1="136.5513" y2="2217.1021"/><text fill="#000000" font-family="Verdana" font-size="14" lengthAdjust="spacing" textLength="62" x="25" y="133.6118">Operator</text><ellipse cx="59" cy="67.5366" fill="#FFFFFF" rx="8" ry="8" style="stroke:#000000;stroke-width:1.0;"/><path d="M59,75.5366 L59,102.5366 M46,83.5366 L72,83.5366 M59,102.5366 L46,117.5366 M59,102.5366 L72,117.5366 " fill="none" style="stroke:#000000;stroke-width:1.0;"/><text fill="#000000" font-family="Verdana" font-size="14" lengthAdjust="spacing" textLength="62" x="25" y="2230.1772">Operator</text><ellipse cx="59" cy="2242.1167" fill="#FFFFFF" rx="8" ry="8" style="stroke:#000000;stroke-width:1.0;"/><path d="M59,2250.1167 L59,2277.1167 M46,2258.1167 L72,2258.1167 M59,2277.1167 L46,2292.1167 M59,2277.1167 L72,2292.1167 " fill="none" style="stroke:#000000;stroke-width:1.0;"/><rect fill="#FFFFFF" height="48.0293" rx="2.5" ry="2.5" style="stroke:#000000;stroke-width:1.0;" width="89" x="158.5" y="87.522"/><text fill="#000000" font-family="Verdana" font-size="14" lengthAdjust="spacing" textLength="39" x="183.5" y="108.5972">React</text><text fill="#000000" font-family="Verdana" font-size="14" lengthAdjust="spacing" textLength="75" x="165.5" y="125.6118">Dashboard</text><rect fill="#FFFFFF" height="48.0293" rx="2.5" ry="2.5" style="stroke:#000000;stroke-width:1.0;" width="89" x="158.5" y="2216.1021"/><text fill="#000000" font-family="Verdana" font-size="14" lengthAdjust="spacing" textLength="39" x="183.5" y="2237.1772">React</text><text fill="#000000" font-family="Verdana" font-size="14" lengthAdjust="spacing" textLength="75" x="165.5" y="2254.1919">Dashboard</text><rect fill="#FFFFFF" height="31.0146" rx="2.5" ry="2.5" style="stroke:#000000;stroke-width:1.0;" width="84" x="319" y="104.5366"/><text fill="#000000" font-family="Verdana" font-size="14" lengthAdjust="spacing" textLength="70" x="326" y="125.6118">API Client</text><rect fill="#FFFFFF" height="31.0146" rx="2.5" ry="2.5" style="stroke:#000000;stroke-width:1.0;" width="84" x="319" y="2216.1021"/><text fill="#000000" font-family="Verdana" font-size="14" lengthAdjust="spacing" textLength="70" x="326" y="2237.1772">API Client</text><rect fill="#FFFFFF" height="48.0293" rx="2.5" ry="2.5" style="stroke:#000000;stroke-width:1.0;" width="73" x="528.5" y="87.522"/><text fill="#000000" font-family="Verdana" font-size="14" lengthAdjust="spacing" textLength="53" x="538.5" y="108.5972">FastAPI</text><text fill="#000000" font-family="Verdana" font-size="14" lengthAdjust="spacing" textLength="59" x="535.5" y="125.6118">Backend</text><rect fill="#FFFFFF" height="48.0293" rx="2.5" ry="2.5" style="stroke:#000000;stroke-width:1.0;" width="73" x="528.5" y="2216.1021"/><text fill="#000000" font-family="Verdana" font-size="14" lengthAdjust="spacing" textLength="53" x="538.5" y="2237.1772">FastAPI</text><text fill="#000000" font-family="Verdana" font-size="14" lengthAdjust="spacing" textLength="59" x="535.5" y="2254.1919">Backend</text><text fill="#000000" font-family="Verdana" font-size="14" lengthAdjust="spacing" textLength="81" x="701.5" y="133.6118">PostgreSQL</text><path d="M727,83.5366 C727,73.5366 745,73.5366 745,73.5366 C745,73.5366 763,73.5366 763,83.5366 L763,109.5366 C763,119.5366 745,119.5366 745,119.5366 C745,119.5366 727,119.5366 727,109.5366 L727,83.5366 " fill="#FFFFFF" style="stroke:#000000;stroke-width:1.5;"/><path d="M727,83.5366 C727,93.5366 745,93.5366 745,93.5366 C745,93.5366 763,93.5366 763,83.5366 " fill="none" style="stroke:#000000;stroke-width:1.5;"/><text fill="#000000" font-family="Verdana" font-size="14" lengthAdjust="spacing" textLength="81" x="701.5" y="2230.1772">PostgreSQL</text><path d="M727,2243.1167 C727,2233.1167 745,2233.1167 745,2233.1167 C745,2233.1167 763,2233.1167 763,2243.1167 L763,2269.1167 C763,2279.1167 745,2279.1167 745,2279.1167 C745,2279.1167 727,2279.1167 727,2269.1167 L727,2243.1167 " fill="#FFFFFF" style="stroke:#000000;stroke-width:1.5;"/><path d="M727,2243.1167 C727,2253.1167 745,2253.1167 745,2253.1167 C745,2253.1167 763,2253.1167 763,2243.1167 " fill="none" style="stroke:#000000;stroke-width:1.5;"/><rect fill="#FFFFFF" height="48.0293" rx="2.5" ry="2.5" style="stroke:#000000;stroke-width:1.0;" width="98" x="808.5" y="87.522"/><text fill="#000000" font-family="Verdana" font-size="14" lengthAdjust="spacing" textLength="84" x="815.5" y="108.5972">ROS Sensor</text><text fill="#000000" font-family="Verdana" font-size="14" lengthAdjust="spacing" textLength="46" x="834.5" y="125.6118">Bridge</text><rect fill="#FFFFFF" height="48.0293" rx="2.5" ry="2.5" style="stroke:#000000;stroke-width:1.0;" width="98" x="808.5" y="2216.1021"/><text fill="#000000" font-family="Verdana" font-size="14" lengthAdjust="spacing" textLength="84" x="815.5" y="2237.1772">ROS Sensor</text><text fill="#000000" font-family="Verdana" font-size="14" lengthAdjust="spacing" textLength="46" x="834.5" y="2254.1919">Bridge</text><rect fill="#FFFFFF" height="48.0293" rx="2.5" ry="2.5" style="stroke:#000000;stroke-width:1.0;" width="79" x="980" y="87.522"/><text fill="#000000" font-family="Verdana" font-size="14" lengthAdjust="spacing" textLength="65" x="987" y="108.5972">Coverage</text><text fill="#000000" font-family="Verdana" font-size="14" lengthAdjust="spacing" textLength="52" x="993.5" y="125.6118">Planner</text><rect fill="#FFFFFF" height="48.0293" rx="2.5" ry="2.5" style="stroke:#000000;stroke-width:1.0;" width="79" x="980" y="2216.1021"/><text fill="#000000" font-family="Verdana" font-size="14" lengthAdjust="spacing" textLength="65" x="987" y="2237.1772">Coverage</text><text fill="#000000" font-family="Verdana" font-size="14" lengthAdjust="spacing" textLength="52" x="993.5" y="2254.1919">Planner</text><rect fill="#FFFFFF" height="48.0293" rx="2.5" ry="2.5" style="stroke:#000000;stroke-width:1.0;" width="83" x="1144" y="87.522"/><text fill="#000000" font-family="Verdana" font-size="14" lengthAdjust="spacing" textLength="66" x="1152.5" y="108.5972">Waypoint</text><text fill="#000000" font-family="Verdana" font-size="14" lengthAdjust="spacing" textLength="69" x="1151" y="125.6118">Controller</text><rect fill="#FFFFFF" height="48.0293" rx="2.5" ry="2.5" style="stroke:#000000;stroke-width:1.0;" width="83" x="1144" y="2216.1021"/><text fill="#000000" font-family="Verdana" font-size="14" lengthAdjust="spacing" textLength="66" x="1152.5" y="2237.1772">Waypoint</text><text fill="#000000" font-family="Verdana" font-size="14" lengthAdjust="spacing" textLength="69" x="1151" y="2254.1919">Controller</text><rect fill="#FFFFFF" height="48.0293" rx="2.5" ry="2.5" style="stroke:#000000;stroke-width:1.0;" width="74" x="1341.5" y="87.522"/><text fill="#000000" font-family="Verdana" font-size="14" lengthAdjust="spacing" textLength="60" x="1348.5" y="108.5972">Obstacle</text><text fill="#000000" font-family="Verdana" font-size="14" lengthAdjust="spacing" textLength="60" x="1348.5" y="125.6118">Detector</text><rect fill="#FFFFFF" height="48.0293" rx="2.5" ry="2.5" style="stroke:#000000;stroke-width:1.0;" width="74" x="1341.5" y="2216.1021"/><text fill="#000000" font-family="Verdana" font-size="14" lengthAdjust="spacing" textLength="60" x="1348.5" y="2237.1772">Obstacle</text><text fill="#000000" font-family="Verdana" font-size="14" lengthAdjust="spacing" textLength="60" x="1348.5" y="2254.1919">Detector</text><rect fill="#FFFFFF" height="48.0293" rx="2.5" ry="2.5" style="stroke:#000000;stroke-width:1.0;" width="59" x="1472" y="87.522"/><text fill="#000000" font-family="Verdana" font-size="14" lengthAdjust="spacing" textLength="45" x="1479" y="108.5972">Safety</text><text fill="#000000" font-family="Verdana" font-size="14" lengthAdjust="spacing" textLength="33" x="1485" y="125.6118">Stop</text><rect fill="#FFFFFF" height="48.0293" rx="2.5" ry="2.5" style="stroke:#000000;stroke-width:1.0;" width="59" x="1472" y="2216.1021"/><text fill="#000000" font-family="Verdana" font-size="14" lengthAdjust="spacing" textLength="45" x="1479" y="2237.1772">Safety</text><text fill="#000000" font-family="Verdana" font-size="14" lengthAdjust="spacing" textLength="33" x="1485" y="2254.1919">Stop</text><rect fill="#FFFFFF" height="31.0146" style="stroke:#000000;stroke-width:1.0;" width="94" x="1676.5" y="100.5366"/><rect fill="#FFFFFF" height="31.0146" style="stroke:#000000;stroke-width:1.0;" width="94" x="1672.5" y="104.5366"/><text fill="#000000" font-family="Verdana" font-size="14" lengthAdjust="spacing" textLength="80" x="1679.5" y="125.6118">ROS Topics</text><rect fill="#FFFFFF" height="31.0146" style="stroke:#000000;stroke-width:1.0;" width="94" x="1676.5" y="2216.1021"/><rect fill="#FFFFFF" height="31.0146" style="stroke:#000000;stroke-width:1.0;" width="94" x="1672.5" y="2220.1021"/><text fill="#000000" font-family="Verdana" font-size="14" lengthAdjust="spacing" textLength="80" x="1679.5" y="2241.1772">ROS Topics</text><rect fill="#FFFFFF" height="48.0293" rx="2.5" ry="2.5" style="stroke:#000000;stroke-width:1.0;" width="134" x="1918.5" y="87.522"/><text fill="#000000" font-family="Verdana" font-size="14" lengthAdjust="spacing" textLength="67" x="1952" y="108.5972">Hardware</text><text fill="#000000" font-family="Verdana" font-size="14" lengthAdjust="spacing" textLength="120" x="1925.5" y="125.6118">(Sensors/Motors)</text><rect fill="#FFFFFF" height="48.0293" rx="2.5" ry="2.5" style="stroke:#000000;stroke-width:1.0;" width="134" x="1918.5" y="2216.1021"/><text fill="#000000" font-family="Verdana" font-size="14" lengthAdjust="spacing" textLength="67" x="1952" y="2237.1772">Hardware</text><text fill="#000000" font-family="Verdana" font-size="14" lengthAdjust="spacing" textLength="120" x="1925.5" y="2254.1919">(Sensors/Motors)</text><rect fill="#FFFFFF" height="3" style="stroke:#FFFFFF;stroke-width:1.0;" width="2097.5" x="5" y="167.4509"/><line style="stroke:#000000;stroke-width:0.5;" x1="5" x2="2102.5" y1="167.4509" y2="167.4509"/><line style="stroke:#000000;stroke-width:0.5;" x1="5" x2="2102.5" y1="170.4509" y2="170.4509"/><rect fill="#FFFFFF" height="23.7993" style="stroke:#000000;stroke-width:1.0;" width="149" x="979.25" y="156.5513"/><text fill="#000000" font-family="Verdana" font-size="13" font-weight="bold" lengthAdjust="spacing" textLength="131" x="985.25" y="173.6211">Pre-Mission Setup</text><polygon fill="#000000" points="191,223.9492,201,227.9492,191,231.9492,195,227.9492" style="stroke:#000000;stroke-width:1.0;"/><line style="stroke:#000000;stroke-width:1.0;" x1="59" x2="197" y1="227.9492" y2="227.9492"/><text fill="#000000" font-family="Verdana" font-size="13" lengthAdjust="spacing" textLength="120" x="66" y="207.4204">Configure mission</text><text fill="#000000" font-family="Verdana" font-size="13" lengthAdjust="spacing" textLength="87" x="66" y="223.2197">(2&#215;2m area)</text><polygon fill="#000000" points="349,253.7485,359,257.7485,349,261.7485,353,257.7485" style="stroke:#000000;stroke-width:1.0;"/><line style="stroke:#000000;stroke-width:1.0;" x1="203" x2="355" y1="257.7485" y2="257.7485"/><text fill="#000000" font-family="Verdana" font-size="13" lengthAdjust="spacing" textLength="119" x="210" y="253.019">Click "Start Scan"</text><rect fill="#FFFFFF" height="3" style="stroke:#FFFFFF;stroke-width:1.0;" width="2097.5" x="5" y="286.6482"/><line style="stroke:#000000;stroke-width:0.5;" x1="5" x2="2102.5" y1="286.6482" y2="286.6482"/><line style="stroke:#000000;stroke-width:0.5;" x1="5" x2="2102.5" y1="289.6482" y2="289.6482"/><rect fill="#FFFFFF" height="23.7993" style="stroke:#000000;stroke-width:1.0;" width="112" x="997.75" y="275.7485"/><text fill="#000000" font-family="Verdana" font-size="13" font-weight="bold" lengthAdjust="spacing" textLength="94" x="1003.75" y="292.8184">Mission Start</text><polygon fill="#000000" points="553,343.1465,563,347.1465,553,351.1465,557,347.1465" style="stroke:#000000;stroke-width:1.0;"/><line style="stroke:#000000;stroke-width:1.0;" x1="361" x2="559" y1="347.1465" y2="347.1465"/><text fill="#000000" font-family="Verdana" font-size="13" lengthAdjust="spacing" textLength="175" x="368" y="326.6177">POST /robot/mission/start</text><text fill="#000000" font-family="Verdana" font-size="13" lengthAdjust="spacing" textLength="170" x="368" y="342.417">{area: 2.0, spacing: 0.5}</text><polygon fill="#000000" points="733,372.9458,743,376.9458,733,380.9458,737,376.9458" style="stroke:#000000;stroke-width:1.0;"/><line style="stroke:#000000;stroke-width:1.0;" x1="565" x2="739" y1="376.9458" y2="376.9458"/><text fill="#000000" font-family="Verdana" font-size="13" lengthAdjust="spacing" textLength="134" x="572" y="372.2163">INSERT Scan record</text><polygon fill="#000000" points="1007.5,418.5444,1017.5,422.5444,1007.5,426.5444,1011.5,422.5444" style="stroke:#000000;stroke-width:1.0;"/><line style="stroke:#000000;stroke-width:1.0;" x1="565" x2="1013.5" y1="422.5444" y2="422.5444"/><text fill="#000000" font-family="Verdana" font-size="13" lengthAdjust="spacing" textLength="237" x="572" y="402.0156">roslaunch coverage_mission.launch</text><text fill="#000000" font-family="Verdana" font-size="13" lengthAdjust="spacing" textLength="140" x="572" y="417.8149">(or ROS service call)</text><line style="stroke:#000000;stroke-width:1.0;" x1="1019.5" x2="1061.5" y1="483.9424" y2="483.9424"/><line style="stroke:#000000;stroke-width:1.0;" x1="1061.5" x2="1061.5" y1="483.9424" y2="496.9424"/><line style="stroke:#000000;stroke-width:1.0;" x1="1020.5" x2="1061.5" y1="496.9424" y2="496.9424"/><polygon fill="#000000" points="1030.5,492.9424,1020.5,496.9424,1030.5,500.9424,1026.5,496.9424" style="stroke:#000000;stroke-width:1.0;"/><text fill="#000000" font-family="Verdana" font-size="13" lengthAdjust="spacing" textLength="143" x="1026.5" y="447.6143">Generate lawnmower</text><text fill="#000000" font-family="Verdana" font-size="13" lengthAdjust="spacing" textLength="113" x="1026.5" y="463.4136">waypoint pattern</text><text fill="#000000" font-family="Verdana" font-size="13" lengthAdjust="spacing" textLength="100" x="1026.5" y="479.2129">(12 waypoints)</text><rect fill="#FFFFFF" height="3" style="stroke:#FFFFFF;stroke-width:1.0;" width="2097.5" x="5" y="525.842"/><line style="stroke:#000000;stroke-width:0.5;" x1="5" x2="2102.5" y1="525.842" y2="525.842"/><line style="stroke:#000000;stroke-width:0.5;" x1="5" x2="2102.5" y1="528.842" y2="528.842"/><rect fill="#FFFFFF" height="23.7993" style="stroke:#000000;stroke-width:1.0;" width="335" x="886.25" y="514.9424"/><text fill="#000000" font-family="Verdana" font-size="13" font-weight="bold" lengthAdjust="spacing" textLength="317" x="892.25" y="532.0122">Mission Execution Loop (for each waypoint)</text><path d="M498.5,555.7417 L574.5,555.7417 L574.5,563.541 L564.5,573.541 L498.5,573.541 L498.5,555.7417 " fill="#FFFFFF" style="stroke:#000000;stroke-width:1.0;"/><rect fill="none" height="1139.5713" style="stroke:#000000;stroke-width:1.0;" width="1594" x="498.5" y="555.7417"/><text fill="#000000" font-family="Verdana" font-size="13" font-weight="bold" lengthAdjust="spacing" textLength="31" x="513.5" y="569.8115">loop</text><text fill="#000000" font-family="Verdana" font-size="11" font-weight="bold" lengthAdjust="spacing" textLength="191" x="589.5" y="568.8008">[For each waypoint (12 total)]</text><polygon fill="#000000" points="1709.5,607.1396,1719.5,611.1396,1709.5,615.1396,1713.5,611.1396" style="stroke:#000000;stroke-width:1.0;"/><line style="stroke:#000000;stroke-width:1.0;" x1="1019.5" x2="1715.5" y1="611.1396" y2="611.1396"/><text fill="#000000" font-family="Verdana" font-size="13" lengthAdjust="spacing" textLength="118" x="1026.5" y="590.6108">Publish /waypoint</text><text fill="#000000" font-family="Verdana" font-size="13" lengthAdjust="spacing" textLength="146" x="1026.5" y="606.4102">PoseStamped(x, y, &#952;)</text><path d="M508.5,626.1396 L577.5,626.1396 L577.5,633.939 L567.5,643.939 L508.5,643.939 L508.5,626.1396 " fill="#FFFFFF" style="stroke:#000000;stroke-width:1.0;"/><rect fill="none" height="826.7788" style="stroke:#000000;stroke-width:1.0;" width="1574" x="508.5" y="626.1396"/><text fill="#000000" font-family="Verdana" font-size="13" font-weight="bold" lengthAdjust="spacing" textLength="24" x="523.5" y="640.2095">par</text><text fill="#000000" font-family="Verdana" font-size="11" font-weight="bold" lengthAdjust="spacing" textLength="124" x="592.5" y="639.1987">[Parallel Processes]</text><polygon fill="#000000" points="1196.5,661.7383,1186.5,665.7383,1196.5,669.7383,1192.5,665.7383" style="stroke:#000000;stroke-width:1.0;"/><line style="stroke:#000000;stroke-width:1.0;" x1="1190.5" x2="1720.5" y1="665.7383" y2="665.7383"/><text fill="#000000" font-family="Verdana" font-size="13" lengthAdjust="spacing" textLength="136" x="1202.5" y="661.0088">Subscribe /waypoint</text><polygon fill="#000000" points="1732.5,707.3369,1722.5,711.3369,1732.5,715.3369,1728.5,711.3369" style="stroke:#000000;stroke-width:1.0;"/><line style="stroke:#000000;stroke-width:1.0;" x1="1726.5" x2="1984.5" y1="711.3369" y2="711.3369"/><text fill="#000000" font-family="Verdana" font-size="13" lengthAdjust="spacing" textLength="95" x="1738.5" y="690.8081">Publish /odom</text><text fill="#000000" font-family="Verdana" font-size="13" lengthAdjust="spacing" textLength="130" x="1738.5" y="706.6074">(encoder feedback)</text><polygon fill="#000000" points="1196.5,737.1362,1186.5,741.1362,1196.5,745.1362,1192.5,741.1362" style="stroke:#000000;stroke-width:1.0;"/><line style="stroke:#000000;stroke-width:1.0;" x1="1190.5" x2="1720.5" y1="741.1362" y2="741.1362"/><text fill="#000000" font-family="Verdana" font-size="13" lengthAdjust="spacing" textLength="113" x="1202.5" y="736.4067">Subscribe /odom</text><line style="stroke:#000000;stroke-width:1.0;" x1="1185.5" x2="1227.5" y1="802.5342" y2="802.5342"/><line style="stroke:#000000;stroke-width:1.0;" x1="1227.5" x2="1227.5" y1="802.5342" y2="815.5342"/><line style="stroke:#000000;stroke-width:1.0;" x1="1186.5" x2="1227.5" y1="815.5342" y2="815.5342"/><polygon fill="#000000" points="1196.5,811.5342,1186.5,815.5342,1196.5,819.5342,1192.5,815.5342" style="stroke:#000000;stroke-width:1.0;"/><text fill="#000000" font-family="Verdana" font-size="13" lengthAdjust="spacing" textLength="76" x="1192.5" y="766.2061">PID Control</text><text fill="#000000" font-family="Verdana" font-size="13" lengthAdjust="spacing" textLength="153" x="1192.5" y="782.0054">linear = 0.5 * distance</text><text fill="#000000" font-family="Verdana" font-size="13" lengthAdjust="spacing" textLength="179" x="1192.5" y="797.8047">angular = 1.5 * yaw_error</text><polygon fill="#000000" points="1709.5,857.1328,1719.5,861.1328,1709.5,865.1328,1713.5,861.1328" style="stroke:#000000;stroke-width:1.0;"/><line style="stroke:#000000;stroke-width:1.0;" x1="1185.5" x2="1715.5" y1="861.1328" y2="861.1328"/><text fill="#000000" font-family="Verdana" font-size="13" lengthAdjust="spacing" textLength="114" x="1192.5" y="840.604">Publish /cmd_vel</text><text fill="#000000" font-family="Verdana" font-size="13" lengthAdjust="spacing" textLength="145" x="1192.5" y="856.4033">Twist(linear, angular)</text><polygon fill="#000000" points="1973.5,886.9321,1983.5,890.9321,1973.5,894.9321,1977.5,890.9321" style="stroke:#000000;stroke-width:1.0;"/><line style="stroke:#000000;stroke-width:1.0;" x1="1721.5" x2="1979.5" y1="890.9321" y2="890.9321"/><text fill="#000000" font-family="Verdana" font-size="13" lengthAdjust="spacing" textLength="115" x="1728.5" y="886.2026">Motor commands</text><polygon fill="#000000" points="1732.5,932.5308,1722.5,936.5308,1732.5,940.5308,1728.5,936.5308" style="stroke:#000000;stroke-width:1.0;"/><line style="stroke:#000000;stroke-width:1.0;" x1="1726.5" x2="1984.5" y1="936.5308" y2="936.5308"/><text fill="#000000" font-family="Verdana" font-size="13" lengthAdjust="spacing" textLength="88" x="1738.5" y="916.002">Publish /scan</text><text fill="#000000" font-family="Verdana" font-size="13" lengthAdjust="spacing" textLength="76" x="1738.5" y="931.8013">(lidar data)</text><polygon fill="#000000" points="1389.5,962.3301,1379.5,966.3301,1389.5,970.3301,1385.5,966.3301" style="stroke:#000000;stroke-width:1.0;"/><line style="stroke:#000000;stroke-width:1.0;" x1="1383.5" x2="1720.5" y1="966.3301" y2="966.3301"/><text fill="#000000" font-family="Verdana" font-size="13" lengthAdjust="spacing" textLength="106" x="1395.5" y="961.6006">Subscribe /scan</text><line style="stroke:#000000;stroke-width:1.0;" x1="1378.5" x2="1420.5" y1="1011.9287" y2="1011.9287"/><line style="stroke:#000000;stroke-width:1.0;" x1="1420.5" x2="1420.5" y1="1011.9287" y2="1024.9287"/><line style="stroke:#000000;stroke-width:1.0;" x1="1379.5" x2="1420.5" y1="1024.9287" y2="1024.9287"/><polygon fill="#000000" points="1389.5,1020.9287,1379.5,1024.9287,1389.5,1028.9287,1385.5,1024.9287" style="stroke:#000000;stroke-width:1.0;"/><text fill="#000000" font-family="Verdana" font-size="13" lengthAdjust="spacing" textLength="103" x="1385.5" y="991.3999">Check front arc</text><text fill="#000000" font-family="Verdana" font-size="13" lengthAdjust="spacing" textLength="109" x="1385.5" y="1007.1992">(&#177;30&#176;, &lt;0.30m)</text><polygon fill="#000000" points="1709.5,1066.5273,1719.5,1070.5273,1709.5,1074.5273,1713.5,1070.5273" style="stroke:#000000;stroke-width:1.0;"/><line style="stroke:#000000;stroke-width:1.0;" x1="1378.5" x2="1715.5" y1="1070.5273" y2="1070.5273"/><text fill="#000000" font-family="Verdana" font-size="13" lengthAdjust="spacing" textLength="178" x="1385.5" y="1049.9985">Publish /obstacle_detected</text><text fill="#000000" font-family="Verdana" font-size="13" lengthAdjust="spacing" textLength="29" x="1385.5" y="1065.7979">Bool</text><polygon fill="#000000" points="1512.5,1096.3267,1502.5,1100.3267,1512.5,1104.3267,1508.5,1100.3267" style="stroke:#000000;stroke-width:1.0;"/><line style="stroke:#000000;stroke-width:1.0;" x1="1506.5" x2="1720.5" y1="1100.3267" y2="1100.3267"/><text fill="#000000" font-family="Verdana" font-size="13" lengthAdjust="spacing" textLength="196" x="1518.5" y="1095.5972">Subscribe /obstacle_detected</text><path d="M960,1115.3267 L1024,1115.3267 L1024,1123.126 L1014,1133.126 L960,1133.126 L960,1115.3267 " fill="#FFFFFF" style="stroke:#000000;stroke-width:1.0;"/><rect fill="none" height="122.9966" style="stroke:#000000;stroke-width:1.0;" width="1112.5" x="960" y="1115.3267"/><text fill="#000000" font-family="Verdana" font-size="13" font-weight="bold" lengthAdjust="spacing" textLength="19" x="975" y="1129.3965">alt</text><text fill="#000000" font-family="Verdana" font-size="11" font-weight="bold" lengthAdjust="spacing" textLength="123" x="1039" y="1128.3857">[Obstacle Detected]</text><polygon fill="#000000" points="1709.5,1166.7246,1719.5,1170.7246,1709.5,1174.7246,1713.5,1170.7246" style="stroke:#000000;stroke-width:1.0;"/><line style="stroke:#000000;stroke-width:1.0;" x1="1501.5" x2="1715.5" y1="1170.7246" y2="1170.7246"/><text fill="#000000" font-family="Verdana" font-size="13" lengthAdjust="spacing" textLength="135" x="1508.5" y="1150.1958">OVERRIDE /cmd_vel</text><text fill="#000000" font-family="Verdana" font-size="13" lengthAdjust="spacing" textLength="129" x="1508.5" y="1165.9951">Twist(0, 0) @ 20Hz</text><polygon fill="#000000" points="1973.5,1196.5239,1983.5,1200.5239,1973.5,1204.5239,1977.5,1200.5239" style="stroke:#000000;stroke-width:1.0;"/><line style="stroke:#000000;stroke-width:1.0;" x1="1721.5" x2="1979.5" y1="1200.5239" y2="1200.5239"/><text fill="#000000" font-family="Verdana" font-size="13" lengthAdjust="spacing" textLength="87" x="1728.5" y="1195.7944">STOP motors</text><polygon fill="#000000" points="1030.5,1226.3232,1020.5,1230.3232,1030.5,1234.3232,1026.5,1230.3232" style="stroke:#000000;stroke-width:1.0;"/><line style="stroke:#000000;stroke-width:1.0;" x1="1024.5" x2="1720.5" y1="1230.3232" y2="1230.3232"/><text fill="#000000" font-family="Verdana" font-size="13" lengthAdjust="spacing" textLength="95" x="1036.5" y="1225.5938">Pause mission</text><polygon fill="#000000" points="1732.5,1263.1226,1722.5,1267.1226,1732.5,1271.1226,1728.5,1267.1226" style="stroke:#000000;stroke-width:1.0;"/><line style="stroke:#000000;stroke-width:1.0;" x1="1726.5" x2="1984.5" y1="1267.1226" y2="1267.1226"/><text fill="#000000" font-family="Verdana" font-size="13" lengthAdjust="spacing" textLength="240" x="1738.5" y="1262.3931">Publish /sensors/sht40/temperature</text><polygon fill="#000000" points="1732.5,1292.9219,1722.5,1296.9219,1732.5,1300.9219,1728.5,1296.9219" style="stroke:#000000;stroke-width:1.0;"/><line style="stroke:#000000;stroke-width:1.0;" x1="1726.5" x2="1984.5" y1="1296.9219" y2="1296.9219"/><text fill="#000000" font-family="Verdana" font-size="13" lengthAdjust="spacing" textLength="210" x="1738.5" y="1292.1924">Publish /sensors/thermal/mean</text><polygon fill="#000000" points="1732.5,1322.7212,1722.5,1326.7212,1732.5,1330.7212,1728.5,1326.7212" style="stroke:#000000;stroke-width:1.0;"/><line style="stroke:#000000;stroke-width:1.0;" x1="1726.5" x2="1984.5" y1="1326.7212" y2="1326.7212"/><text fill="#000000" font-family="Verdana" font-size="13" lengthAdjust="spacing" textLength="227" x="1738.5" y="1321.9917">Publish /camera/color/image_raw</text><polygon fill="#000000" points="868.5,1352.5205,858.5,1356.5205,868.5,1360.5205,864.5,1356.5205" style="stroke:#000000;stroke-width:1.0;"/><line style="stroke:#000000;stroke-width:1.0;" x1="862.5" x2="1720.5" y1="1356.5205" y2="1356.5205"/><text fill="#000000" font-family="Verdana" font-size="13" lengthAdjust="spacing" textLength="158" x="874.5" y="1351.791">Subscribe sensor topics</text><line style="stroke:#000000;stroke-width:1.0;" x1="857.5" x2="899.5" y1="1386.3198" y2="1386.3198"/><line style="stroke:#000000;stroke-width:1.0;" x1="899.5" x2="899.5" y1="1386.3198" y2="1399.3198"/><line style="stroke:#000000;stroke-width:1.0;" x1="858.5" x2="899.5" y1="1399.3198" y2="1399.3198"/><polygon fill="#000000" points="868.5,1395.3198,858.5,1399.3198,868.5,1403.3198,864.5,1399.3198" style="stroke:#000000;stroke-width:1.0;"/><text fill="#000000" font-family="Verdana" font-size="13" lengthAdjust="spacing" textLength="148" x="864.5" y="1381.5903">Convert to JSON/JPEG</text><polygon fill="#000000" points="576,1440.9185,566,1444.9185,576,1448.9185,572,1444.9185" style="stroke:#000000;stroke-width:1.0;"/><line style="stroke:#000000;stroke-width:1.0;" x1="570" x2="856.5" y1="1444.9185" y2="1444.9185"/><text fill="#000000" font-family="Verdana" font-size="13" lengthAdjust="spacing" textLength="169" x="582" y="1424.3896">Write latest_sensors.json</text><text fill="#000000" font-family="Verdana" font-size="13" lengthAdjust="spacing" textLength="133" x="582" y="1440.189">Write rgb_latest.jpg</text><line style="stroke:#000000;stroke-width:1.0;" x1="1185.5" x2="1227.5" y1="1497.5171" y2="1497.5171"/><line style="stroke:#000000;stroke-width:1.0;" x1="1227.5" x2="1227.5" y1="1497.5171" y2="1510.5171"/><line style="stroke:#000000;stroke-width:1.0;" x1="1186.5" x2="1227.5" y1="1510.5171" y2="1510.5171"/><polygon fill="#000000" points="1196.5,1506.5171,1186.5,1510.5171,1196.5,1514.5171,1192.5,1510.5171" style="stroke:#000000;stroke-width:1.0;"/><text fill="#000000" font-family="Verdana" font-size="13" lengthAdjust="spacing" textLength="130" x="1192.5" y="1476.9883">if distance &lt; 0.5m:</text><text fill="#000000" font-family="Verdana" font-size="13" lengthAdjust="spacing" textLength="140" x="1202.5" y="1492.7876">goal_reached = True</text><polygon fill="#000000" points="1709.5,1552.1157,1719.5,1556.1157,1709.5,1560.1157,1713.5,1556.1157" style="stroke:#000000;stroke-width:1.0;"/><line style="stroke:#000000;stroke-width:1.0;" x1="1185.5" x2="1715.5" y1="1556.1157" y2="1556.1157"/><text fill="#000000" font-family="Verdana" font-size="13" lengthAdjust="spacing" textLength="147" x="1192.5" y="1535.5869">Publish /goal_reached</text><text fill="#000000" font-family="Verdana" font-size="13" lengthAdjust="spacing" textLength="71" x="1192.5" y="1551.3862">Bool(True)</text><polygon fill="#000000" points="1030.5,1581.915,1020.5,1585.915,1030.5,1589.915,1026.5,1585.915" style="stroke:#000000;stroke-width:1.0;"/><line style="stroke:#000000;stroke-width:1.0;" x1="1024.5" x2="1720.5" y1="1585.915" y2="1585.915"/><text fill="#000000" font-family="Verdana" font-size="13" lengthAdjust="spacing" textLength="165" x="1036.5" y="1581.1855">Subscribe /goal_reached</text><line style="stroke:#000000;stroke-width:1.0;" x1="1019.5" x2="1061.5" y1="1631.5137" y2="1631.5137"/><line style="stroke:#000000;stroke-width:1.0;" x1="1061.5" x2="1061.5" y1="1631.5137" y2="1644.5137"/><line style="stroke:#000000;stroke-width:1.0;" x1="1020.5" x2="1061.5" y1="1644.5137" y2="1644.5137"/><polygon fill="#000000" points="1030.5,1640.5137,1020.5,1644.5137,1030.5,1648.5137,1026.5,1644.5137" style="stroke:#000000;stroke-width:1.0;"/><text fill="#000000" font-family="Verdana" font-size="13" lengthAdjust="spacing" textLength="118" x="1026.5" y="1610.9849">Dwell for thermal</text><text fill="#000000" font-family="Verdana" font-size="13" lengthAdjust="spacing" textLength="133" x="1026.5" y="1626.7842">capture (2 seconds)</text><line style="stroke:#000000;stroke-width:1.0;" x1="1019.5" x2="1061.5" y1="1674.313" y2="1674.313"/><line style="stroke:#000000;stroke-width:1.0;" x1="1061.5" x2="1061.5" y1="1674.313" y2="1687.313"/><line style="stroke:#000000;stroke-width:1.0;" x1="1020.5" x2="1061.5" y1="1687.313" y2="1687.313"/><polygon fill="#000000" points="1030.5,1683.313,1020.5,1687.313,1030.5,1691.313,1026.5,1687.313" style="stroke:#000000;stroke-width:1.0;"/><text fill="#000000" font-family="Verdana" font-size="13" lengthAdjust="spacing" textLength="152" x="1026.5" y="1669.5835">Move to next waypoint</text><rect fill="#FFFFFF" height="3" style="stroke:#FFFFFF;stroke-width:1.0;" width="2097.5" x="5" y="1723.2126"/><line style="stroke:#000000;stroke-width:0.5;" x1="5" x2="2102.5" y1="1723.2126" y2="1723.2126"/><line style="stroke:#000000;stroke-width:0.5;" x1="5" x2="2102.5" y1="1726.2126" y2="1726.2126"/><rect fill="#FFFFFF" height="23.7993" style="stroke:#000000;stroke-width:1.0;" width="322" x="892.75" y="1712.313"/><text fill="#000000" font-family="Verdana" font-size="13" font-weight="bold" lengthAdjust="spacing" textLength="304" x="898.75" y="1729.3828">Real-time Frontend Updates (Continuous)</text><path d="M15,1753.1123 L91,1753.1123 L91,1760.9116 L81,1770.9116 L15,1770.9116 L15,1753.1123 " fill="#FFFFFF" style="stroke:#000000;stroke-width:1.0;"/><rect fill="none" height="225.3945" style="stroke:#000000;stroke-width:1.0;" width="735" x="15" y="1753.1123"/><text fill="#000000" font-family="Verdana" font-size="13" font-weight="bold" lengthAdjust="spacing" textLength="31" x="30" y="1767.1821">loop</text><text fill="#000000" font-family="Verdana" font-size="11" font-weight="bold" lengthAdjust="spacing" textLength="106" x="106" y="1766.1714">[Every 1 second]</text><polygon fill="#000000" points="349,1788.7109,359,1792.7109,349,1796.7109,353,1792.7109" style="stroke:#000000;stroke-width:1.0;"/><line style="stroke:#000000;stroke-width:1.0;" x1="203" x2="355" y1="1792.7109" y2="1792.7109"/><text fill="#000000" font-family="Verdana" font-size="13" lengthAdjust="spacing" textLength="80" x="210" y="1787.9814">Poll sensors</text><polygon fill="#000000" points="553,1818.5103,563,1822.5103,553,1826.5103,557,1822.5103" style="stroke:#000000;stroke-width:1.0;"/><line style="stroke:#000000;stroke-width:1.0;" x1="361" x2="559" y1="1822.5103" y2="1822.5103"/><text fill="#000000" font-family="Verdana" font-size="13" lengthAdjust="spacing" textLength="131" x="368" y="1817.7808">GET /sensors/latest</text><line style="stroke:#000000;stroke-width:1.0;" x1="565" x2="607" y1="1852.3096" y2="1852.3096"/><line style="stroke:#000000;stroke-width:1.0;" x1="607" x2="607" y1="1852.3096" y2="1865.3096"/><line style="stroke:#000000;stroke-width:1.0;" x1="566" x2="607" y1="1865.3096" y2="1865.3096"/><polygon fill="#000000" points="576,1861.3096,566,1865.3096,576,1869.3096,572,1865.3096" style="stroke:#000000;stroke-width:1.0;"/><text fill="#000000" font-family="Verdana" font-size="13" lengthAdjust="spacing" textLength="166" x="572" y="1847.5801">Read latest_sensors.json</text><polygon fill="#000000" points="372,1906.9082,362,1910.9082,372,1914.9082,368,1910.9082" style="stroke:#000000;stroke-width:1.0;"/><line style="stroke:#000000;stroke-width:1.0;stroke-dasharray:2.0,2.0;" x1="366" x2="564" y1="1910.9082" y2="1910.9082"/><text fill="#000000" font-family="Verdana" font-size="13" lengthAdjust="spacing" textLength="100" x="378" y="1890.3794">JSON response</text><text fill="#000000" font-family="Verdana" font-size="13" lengthAdjust="spacing" textLength="180" x="378" y="1906.1787">{temp, humidity, thermal}</text><polygon fill="#000000" points="214,1936.7075,204,1940.7075,214,1944.7075,210,1940.7075" style="stroke:#000000;stroke-width:1.0;"/><line style="stroke:#000000;stroke-width:1.0;stroke-dasharray:2.0,2.0;" x1="208" x2="360" y1="1940.7075" y2="1940.7075"/><text fill="#000000" font-family="Verdana" font-size="13" lengthAdjust="spacing" textLength="134" x="220" y="1935.978">Update SensorPanel</text><polygon fill="#000000" points="70,1966.5068,60,1970.5068,70,1974.5068,66,1970.5068" style="stroke:#000000;stroke-width:1.0;"/><line style="stroke:#000000;stroke-width:1.0;stroke-dasharray:2.0,2.0;" x1="64" x2="202" y1="1970.5068" y2="1970.5068"/><text fill="#000000" font-family="Verdana" font-size="13" lengthAdjust="spacing" textLength="112" x="76" y="1965.7773">Display live data</text><rect fill="#FFFFFF" height="3" style="stroke:#FFFFFF;stroke-width:1.0;" width="2097.5" x="5" y="2006.4065"/><line style="stroke:#000000;stroke-width:0.5;" x1="5" x2="2102.5" y1="2006.4065" y2="2006.4065"/><line style="stroke:#000000;stroke-width:0.5;" x1="5" x2="2102.5" y1="2009.4065" y2="2009.4065"/><rect fill="#FFFFFF" height="23.7993" style="stroke:#000000;stroke-width:1.0;" width="145" x="981.25" y="1995.5068"/><text fill="#000000" font-family="Verdana" font-size="13" font-weight="bold" lengthAdjust="spacing" textLength="127" x="987.25" y="2012.5767">Mission Complete</text><line style="stroke:#000000;stroke-width:1.0;" x1="1019.5" x2="1061.5" y1="2051.1055" y2="2051.1055"/><line style="stroke:#000000;stroke-width:1.0;" x1="1061.5" x2="1061.5" y1="2051.1055" y2="2064.1055"/><line style="stroke:#000000;stroke-width:1.0;" x1="1020.5" x2="1061.5" y1="2064.1055" y2="2064.1055"/><polygon fill="#000000" points="1030.5,2060.1055,1020.5,2064.1055,1030.5,2068.1055,1026.5,2064.1055" style="stroke:#000000;stroke-width:1.0;"/><text fill="#000000" font-family="Verdana" font-size="13" lengthAdjust="spacing" textLength="126" x="1026.5" y="2046.376">All waypoints done</text><polygon fill="#000000" points="1709.5,2089.9048,1719.5,2093.9048,1709.5,2097.9048,1713.5,2093.9048" style="stroke:#000000;stroke-width:1.0;"/><line style="stroke:#000000;stroke-width:1.0;" x1="1019.5" x2="1715.5" y1="2093.9048" y2="2093.9048"/><text fill="#000000" font-family="Verdana" font-size="13" lengthAdjust="spacing" textLength="169" x="1026.5" y="2089.1753">Publish mission complete</text><polygon fill="#000000" points="733,2135.5034,743,2139.5034,733,2143.5034,737,2139.5034" style="stroke:#000000;stroke-width:1.0;"/><line style="stroke:#000000;stroke-width:1.0;" x1="565" x2="739" y1="2139.5034" y2="2139.5034"/><text fill="#000000" font-family="Verdana" font-size="13" lengthAdjust="spacing" textLength="90" x="572" y="2118.9746">UPDATE Scan</text><text fill="#000000" font-family="Verdana" font-size="13" lengthAdjust="spacing" textLength="117" x="572" y="2134.7739">(duration, status)</text><polygon fill="#000000" points="372,2165.3027,362,2169.3027,372,2173.3027,368,2169.3027" style="stroke:#000000;stroke-width:1.0;"/><line style="stroke:#000000;stroke-width:1.0;stroke-dasharray:2.0,2.0;" x1="366" x2="564" y1="2169.3027" y2="2169.3027"/><text fill="#000000" font-family="Verdana" font-size="13" lengthAdjust="spacing" textLength="157" x="378" y="2164.5732">Mission complete event</text><polygon fill="#000000" points="70,2195.1021,60,2199.1021,70,2203.1021,66,2199.1021" style="stroke:#000000;stroke-width:1.0;"/><line style="stroke:#000000;stroke-width:1.0;stroke-dasharray:2.0,2.0;" x1="64" x2="202" y1="2199.1021" y2="2199.1021"/><text fill="#000000" font-family="Verdana" font-size="13" lengthAdjust="spacing" textLength="86" x="76" y="2194.3726">Show results</text><!--SRC=[bLTVSzf647_NfzZIXq37DiH9PrfFt2a6OJkrGKMadiummnpI6IuvtQbt9sEQoUVersZV-fo-zpDrxoI403b9URAv_VlRtTykNvabJIYad33X6MOuXM2jf8vaIg6R6Iba8ZCDjqnh9WKSGvyO0WCkLn3Itp8g8kfv939IGMEKKaNmhmOG3Mz2V-pDvICqRaa4pHvdL9XM0xuUV7TnqUzuW9-KACCYbX9Xe36cQ6Og-aGlvvAes5aP-ztUv52s6rn3Rj59uR-ptisrFvnuLCI0NhtSzPWcqc1AFMXUaEWTFhe81eFlUoyFhGw8DcXgAWfPP_kYs_l97_QTT8ovpuccq0YaDWj5mvzld53_eYQVKOWG2IqL6bGiNj3StlYwV-dlnVcQ6eteDiToBXr8294_g37Qam-8yO9EHS2943J7EhZf3eS8zu7u7LcdaWc4jIU5KPBpGgCt6ax6evkREgNHN1iISVJHfuP6cuBs_OdVcung549oJyrwAa8ZKoSQTWV-v5Sd65cVaS7UqJaa4vcoI3knoIYuxeM7zgwm-YkYC81c3g1ktqeCGxUSsjNT5htpSmWKFTwqPqXDbiBvkMUx3uv_oFi7pW3JlsUBJ558Sb6qVVhF7wS9e1_Iyd8vLDYsajNYB7g7-HcC3iA8Y8RpM7fptwEtYXAQA3e6zODHE86siaLj5txRsYfDnNlhzmnEJpf7e5CICR4uWyx9jn-yZJfQwb-WaUiXvZ9nxa7HIAguAbAK7kLmQZd9HBH4pFCccHK-J_BlCMMSKbi3JTK3YoX4XFEMjp6nO-sI2ZlC53XPYKIkA7RngkWch9OnL5aCdv_2vblTsW77VwHHPkiEDrAcqBn7tpZXorA-PP7Zzcsm_mJMhf66O7IsEoeHvZrZiStcdEabj5TbZ-DGKgn9ajAu-NW4woFuzsyCgkWl28Z2V2d7Zf4HrPfgzsG_ps187jY2k7YBKIaV2vVeV3ir642OpNMas9nkGoXLhkxgOvMnJ10rP4qPKmNtbCPpv9hM__1bJPJY5Q5zbU2wlybaAZWJ514ujnq6tq3Ci0kHkQU2Y4N6tSjpzx8cgnbLIgedN1oc52Nnx86YZyaAhJPpJqTG6AxB3C4v0pVGsAb9GaIilKebSZQ1SAqDJJwBgCQnG4GvYp4Boyzr7ZVKjOkaLIs5Iv5TyTwI8WFSAmGIcI92Jn__Uj7v-ESHlEgSlEWahLe3DOKlE7KMEqgbCUu4MTjZENVkrNnVUuiNuGOsX0tzpJDKFeN1QbYZN_mnhY7_e7f8HfqM_0YddQlVTupiLI_4_o5ndFo4s9P90fBfadPBQMJmdQ8xdi-FYrwvCZvV_M8zwALvsMbZlxWB16d-YpNn_b49uUs4ai-xYqY2zjkuqwHgiyHIh2AhcYBcItwdYBb3P3Mx_agLGh2gWaEBz6rG4bw7es7xTU1VricNM-PECSVJXcepA_8wUQljZikVr68-ovzFtgOBRmV-Pt0f2GTxV2sBnla4gR3xaZlWbIMJv6mg01PeOgPo4qWb4vLHxqkuewgN3qJJwkP3LTTBbPcewkulYQr2VqKv1xjxYa9FHKHIso7GFCMQH1BPf_Mq_YskKbi9GHzDkPuyXnxkEaID7nk61_J0CeIzIjwaiKKQ3rxyWeaCZ-VjelEni6juNlXrNkiFZm17eEYOl5UUkZ0k_Scsb_CQE_dAXR0Lnd3ZkZxPrTYFnJOX7XuwnHCEDyPxEsL7iCmI5ZE3ExO0ziD1d9NpAqUbcFA02CghoQEWkzUmN4pZJv4rS8QmMpOleTwS5JsPf1nfpc9QMx4k8bUU911BGRrFdGy5BzbDvEmUd5zlWdvtuhlp2za_pfGx4l1eCqWqs3fFudQxPnde0_vUyGvo3fVuMmhnpRZHtdy0]--></g></svg>