<?xml version="1.0" encoding="us-ascii" standalone="no"?><svg xmlns="http://www.w3.org/2000/svg" xmlns:xlink="http://www.w3.org/1999/xlink" contentStyleType="text/css" height="679px" preserveAspectRatio="none" style="width:1679px;height:679px;background:#FFFFFF;" version="1.1" viewBox="0 0 1679 679" width="1679px" zoomAndPan="magnify"><defs/><g><text fill="#000000" font-family="Arial" font-size="28" font-weight="bold" lengthAdjust="spacing" textLength="201" x="734.75" y="41.2637">System Layers</text><!--cluster <size:24><b>WEB INTERFACE</b></size>--><g id="cluster_&lt;size:24&gt;&lt;b&gt;WEB INTERFACE&lt;/b&gt;&lt;/size&gt;"><path d="M483,65.7832 L684,65.7832 A3.75,3.75 0 0 1 686.5,68.2832 L693.5,99.3809 L774,99.3809 A2.5,2.5 0 0 1 776.5,101.8809 L776.5,242.6732 A2.5,2.5 0 0 1 774,245.1732 L483,245.1732 A2.5,2.5 0 0 1 480.5,242.6732 L480.5,68.2832 A2.5,2.5 0 0 1 483,65.7832 " fill="#F8BBD0" style="stroke:#000000;stroke-width:4.0;"/><line style="stroke:#000000;stroke-width:4.0;" x1="480.5" x2="693.5" y1="99.3809" y2="99.3809"/><text fill="#000000" font-family="Arial" font-size="24" font-weight="bold" lengthAdjust="spacing" textLength="200" x="484.5" y="90.2949">WEB INTERFACE</text></g><!--cluster <size:24><b>APPLICATION</b></size>--><g id="cluster_&lt;size:24&gt;&lt;b&gt;APPLICATION&lt;/b&gt;&lt;/size&gt;"><path d="M803,65.7832 L967,65.7832 A3.75,3.75 0 0 1 969.5,68.2832 L976.5,99.3809 L1072,99.3809 A2.5,2.5 0 0 1 1074.5,101.8809 L1074.5,242.6732 A2.5,2.5 0 0 1 1072,245.1732 L803,245.1732 A2.5,2.5 0 0 1 800.5,242.6732 L800.5,68.2832 A2.5,2.5 0 0 1 803,65.7832 " fill="#FFF9C4" style="stroke:#000000;stroke-width:4.0;"/><line style="stroke:#000000;stroke-width:4.0;" x1="800.5" x2="976.5" y1="99.3809" y2="99.3809"/><text fill="#000000" font-family="Arial" font-size="24" font-weight="bold" lengthAdjust="spacing" textLength="163" x="804.5" y="90.2949">APPLICATION</text></g><!--cluster <size:24><b>ROBOT CONTROL</b></size>--><g id="cluster_&lt;size:24&gt;&lt;b&gt;ROBOT CONTROL&lt;/b&gt;&lt;/size&gt;"><path d="M1101,65.7832 L1315,65.7832 A3.75,3.75 0 0 1 1317.5,68.2832 L1324.5,99.3809 L1356,99.3809 A2.5,2.5 0 0 1 1358.5,101.8809 L1358.5,242.6732 A2.5,2.5 0 0 1 1356,245.1732 L1101,245.1732 A2.5,2.5 0 0 1 1098.5,242.6732 L1098.5,68.2832 A2.5,2.5 0 0 1 1101,65.7832 " fill="#BBDEFB" style="stroke:#000000;stroke-width:4.0;"/><line style="stroke:#000000;stroke-width:4.0;" x1="1098.5" x2="1324.5" y1="99.3809" y2="99.3809"/><text fill="#000000" font-family="Arial" font-size="24" font-weight="bold" lengthAdjust="spacing" textLength="213" x="1102.5" y="90.2949">ROBOT CONTROL</text></g><!--cluster <size:24><b>HARDWARE</b></size>--><g id="cluster_&lt;size:24&gt;&lt;b&gt;HARDWARE&lt;/b&gt;&lt;/size&gt;"><path d="M1385,77.2832 L1527,77.2832 A3.75,3.75 0 0 1 1529.5,79.7832 L1536.5,110.8809 L1670,110.8809 A2.5,2.5 0 0 1 1672.5,113.3809 L1672.5,231.1732 A2.5,2.5 0 0 1 1670,233.6732 L1385,233.6732 A2.5,2.5 0 0 1 1382.5,231.1732 L1382.5,79.7832 A2.5,2.5 0 0 1 1385,77.2832 " fill="#FFCCBC" style="stroke:#000000;stroke-width:4.0;"/><line style="stroke:#000000;stroke-width:4.0;" x1="1382.5" x2="1536.5" y1="110.8809" y2="110.8809"/><text fill="#000000" font-family="Arial" font-size="24" font-weight="bold" lengthAdjust="spacing" textLength="141" x="1386.5" y="101.7949">HARDWARE</text></g><!--entity <size:20><b>React Dashboard</b></size>\n<size:16>Mission Planning\nLive Monitoring\nData Visualization</size>--><g id="elem_&lt;size:20&gt;&lt;b&gt;React Dashboard&lt;/b&gt;&lt;/size&gt;\n&lt;size:16&gt;Mission Planning\nLive Monitoring\nData Visualization&lt;/size&gt;"><rect fill="#FFFFFF" height="117.3926" rx="2.5" ry="2.5" style="stroke:#000000;stroke-width:1.0;" width="263" x="497" y="111.7832"/><rect fill="#FFFFFF" height="10" style="stroke:#000000;stroke-width:1.0;" width="15" x="740" y="116.7832"/><rect fill="#FFFFFF" height="2" style="stroke:#000000;stroke-width:1.0;" width="4" x="738" y="118.7832"/><rect fill="#FFFFFF" height="2" style="stroke:#000000;stroke-width:1.0;" width="4" x="738" y="122.7832"/><text fill="#000000" font-family="Arial" font-size="20" font-weight="bold" lengthAdjust="spacing" textLength="163" x="512" y="150.543">React Dashboard</text><text fill="#000000" font-family="Arial" font-size="16" lengthAdjust="spacing" textLength="123" x="512" y="169.7891">Mission Planning</text><text fill="#000000" font-family="Arial" font-size="20" lengthAdjust="spacing" textLength="135" x="512" y="191.9395">Live Monitoring</text><text fill="#000000" font-family="Arial" font-size="20" lengthAdjust="spacing" textLength="223" x="512" y="214.9375">Data Visualization&lt;/size&gt;</text></g><!--entity <size:20><b>FastAPI Backend</b></size>\n<size:16>REST API\nData Storage\nMission Control</size>--><g id="elem_&lt;size:20&gt;&lt;b&gt;FastAPI Backend&lt;/b&gt;&lt;/size&gt;\n&lt;size:16&gt;REST API\nData Storage\nMission Control&lt;/size&gt;"><rect fill="#FFFFFF" height="117.3926" rx="2.5" ry="2.5" style="stroke:#000000;stroke-width:1.0;" width="242" x="816.5" y="111.7832"/><rect fill="#FFFFFF" height="10" style="stroke:#000000;stroke-width:1.0;" width="15" x="1038.5" y="116.7832"/><rect fill="#FFFFFF" height="2" style="stroke:#000000;stroke-width:1.0;" width="4" x="1036.5" y="118.7832"/><rect fill="#FFFFFF" height="2" style="stroke:#000000;stroke-width:1.0;" width="4" x="1036.5" y="122.7832"/><text fill="#000000" font-family="Arial" font-size="20" font-weight="bold" lengthAdjust="spacing" textLength="162" x="831.5" y="150.543">FastAPI Backend</text><text fill="#000000" font-family="Arial" font-size="16" lengthAdjust="spacing" textLength="74" x="831.5" y="169.7891">REST API</text><text fill="#000000" font-family="Arial" font-size="20" lengthAdjust="spacing" textLength="118" x="831.5" y="191.9395">Data Storage</text><text fill="#000000" font-family="Arial" font-size="20" lengthAdjust="spacing" textLength="202" x="831.5" y="214.9375">Mission Control&lt;/size&gt;</text></g><!--entity <size:20><b>ROS Navigation</b></size>\n<size:16>Waypoint Planning\nObstacle Detection\nMotor Control</size>--><g id="elem_&lt;size:20&gt;&lt;b&gt;ROS Navigation&lt;/b&gt;&lt;/size&gt;\n&lt;size:16&gt;Waypoint Planning\nObstacle Detection\nMotor Control&lt;/size&gt;"><rect fill="#FFFFFF" height="117.3926" rx="2.5" ry="2.5" style="stroke:#000000;stroke-width:1.0;" width="227" x="1115" y="111.7832"/><rect fill="#FFFFFF" height="10" style="stroke:#000000;stroke-width:1.0;" width="15" x="1322" y="116.7832"/><rect fill="#FFFFFF" height="2" style="stroke:#000000;stroke-width:1.0;" width="4" x="1320" y="118.7832"/><rect fill="#FFFFFF" height="2" style="stroke:#000000;stroke-width:1.0;" width="4" x="1320" y="122.7832"/><text fill="#000000" font-family="Arial" font-size="20" font-weight="bold" lengthAdjust="spacing" textLength="151" x="1130" y="150.543">ROS Navigation</text><text fill="#000000" font-family="Arial" font-size="16" lengthAdjust="spacing" textLength="135" x="1130" y="169.7891">Waypoint Planning</text><text fill="#000000" font-family="Arial" font-size="20" lengthAdjust="spacing" textLength="169" x="1130" y="191.9395">Obstacle Detection</text><text fill="#000000" font-family="Arial" font-size="20" lengthAdjust="spacing" textLength="187" x="1130" y="214.9375">Motor Control&lt;/size&gt;</text></g><!--entity <size:20><b>Sensors & Actuators</b></size>\n<size:16>Lidar ? Camera\nThermal ? Motors</size>--><g id="elem_&lt;size:20&gt;&lt;b&gt;Sensors &amp; Actuators&lt;/b&gt;&lt;/size&gt;\n&lt;size:16&gt;Lidar &#8226; Camera\nThermal &#8226; Motors&lt;/size&gt;"><rect fill="#FFFFFF" height="94.3945" rx="2.5" ry="2.5" style="stroke:#000000;stroke-width:1.0;" width="259" x="1398" y="123.2832"/><rect fill="#FFFFFF" height="10" style="stroke:#000000;stroke-width:1.0;" width="15" x="1637" y="128.2832"/><rect fill="#FFFFFF" height="2" style="stroke:#000000;stroke-width:1.0;" width="4" x="1635" y="130.2832"/><rect fill="#FFFFFF" height="2" style="stroke:#000000;stroke-width:1.0;" width="4" x="1635" y="134.2832"/><text fill="#000000" font-family="Arial" font-size="20" font-weight="bold" lengthAdjust="spacing" textLength="197" x="1413" y="162.043">Sensors &amp; Actuators</text><text fill="#000000" font-family="Arial" font-size="16" lengthAdjust="spacing" textLength="107" x="1413" y="181.2891">Lidar &#8226; Camera</text><text fill="#000000" font-family="Arial" font-size="20" lengthAdjust="spacing" textLength="219" x="1413" y="203.4395">Thermal &#8226; Motors&lt;/size&gt;</text></g><!--entity React Dashboard--><g id="elem_React Dashboard"><rect fill="#FFFFFF" height="52.998" rx="2.5" ry="2.5" style="stroke:#000000;stroke-width:1.0;" width="195" x="26" y="143.9832"/><rect fill="#FFFFFF" height="10" style="stroke:#000000;stroke-width:1.0;" width="15" x="201" y="148.9832"/><rect fill="#FFFFFF" height="2" style="stroke:#000000;stroke-width:1.0;" width="4" x="199" y="150.9832"/><rect fill="#FFFFFF" height="2" style="stroke:#000000;stroke-width:1.0;" width="4" x="199" y="154.9832"/><text fill="#000000" font-family="Arial" font-size="20" lengthAdjust="spacing" textLength="155" x="41" y="182.743">React Dashboard</text></g><!--entity FastAPI Backend--><g id="elem_FastAPI Backend"><rect fill="#FFFFFF" height="52.998" rx="2.5" ry="2.5" style="stroke:#000000;stroke-width:1.0;" width="194" x="26.5" y="313.1732"/><rect fill="#FFFFFF" height="10" style="stroke:#000000;stroke-width:1.0;" width="15" x="200.5" y="318.1732"/><rect fill="#FFFFFF" height="2" style="stroke:#000000;stroke-width:1.0;" width="4" x="198.5" y="320.1732"/><rect fill="#FFFFFF" height="2" style="stroke:#000000;stroke-width:1.0;" width="4" x="198.5" y="324.1732"/><text fill="#000000" font-family="Arial" font-size="20" lengthAdjust="spacing" textLength="154" x="41.5" y="351.933">FastAPI Backend</text></g><!--entity ROS Navigation--><g id="elem_ROS Navigation"><rect fill="#FFFFFF" height="52.998" rx="2.5" ry="2.5" style="stroke:#000000;stroke-width:1.0;" width="182" x="32.5" y="466.9232"/><rect fill="#FFFFFF" height="10" style="stroke:#000000;stroke-width:1.0;" width="15" x="194.5" y="471.9232"/><rect fill="#FFFFFF" height="2" style="stroke:#000000;stroke-width:1.0;" width="4" x="192.5" y="473.9232"/><rect fill="#FFFFFF" height="2" style="stroke:#000000;stroke-width:1.0;" width="4" x="192.5" y="477.9232"/><text fill="#000000" font-family="Arial" font-size="20" lengthAdjust="spacing" textLength="142" x="47.5" y="505.683">ROS Navigation</text></g><!--entity Sensors & Actuators--><g id="elem_Sensors &amp; Actuators"><rect fill="#FFFFFF" height="52.998" rx="2.5" ry="2.5" style="stroke:#000000;stroke-width:1.0;" width="223" x="12" y="620.6632"/><rect fill="#FFFFFF" height="10" style="stroke:#000000;stroke-width:1.0;" width="15" x="215" y="625.6632"/><rect fill="#FFFFFF" height="2" style="stroke:#000000;stroke-width:1.0;" width="4" x="213" y="627.6632"/><rect fill="#FFFFFF" height="2" style="stroke:#000000;stroke-width:1.0;" width="4" x="213" y="631.6632"/><text fill="#000000" font-family="Arial" font-size="20" lengthAdjust="spacing" textLength="183" x="27" y="659.423">Sensors &amp; Actuators</text></g><g id="elem_GMN17"><path d="M255.5,125.2332 L255.5,166.4732 L221.26,170.4732 L255.5,174.4732 L255.5,215.7264 A0,0 0 0 0 255.5,215.7264 L461.5,215.7264 A0,0 0 0 0 461.5,215.7264 L461.5,135.2332 L451.5,125.2332 L255.5,125.2332 A0,0 0 0 0 255.5,125.2332 " fill="#FFFFFF" style="stroke:#000000;stroke-width:1.0;"/><path d="M451.5,125.2332 L451.5,135.2332 L461.5,135.2332 L451.5,125.2332 " fill="#FFFFFF" style="stroke:#000000;stroke-width:1.0;"/><text fill="#000000" font-family="Arial" font-size="16" font-weight="bold" lengthAdjust="spacing" textLength="97" x="261.5" y="145.241">User Control</text><text fill="#000000" font-family="Arial" font-size="14" lengthAdjust="spacing" textLength="130" x="261.5" y="161.7635">&#8226; Configure missions</text><text fill="#000000" font-family="Arial" font-size="20" lengthAdjust="spacing" textLength="164" x="261.5" y="183.49">&#8226; Monitor progress</text><text fill="#000000" font-family="Arial" font-size="20" lengthAdjust="spacing" textLength="185" x="261.5" y="206.4881">&#8226; View results&lt;/size&gt;</text></g><g id="elem_GMN20"><path d="M249.5,448.1732 L249.5,489.4232 L214.84,493.4232 L249.5,497.4232 L249.5,538.6664 A0,0 0 0 0 249.5,538.6664 L521.5,538.6664 A0,0 0 0 0 521.5,538.6664 L521.5,458.1732 L511.5,448.1732 L249.5,448.1732 A0,0 0 0 0 249.5,448.1732 " fill="#FFFFFF" style="stroke:#000000;stroke-width:1.0;"/><path d="M511.5,448.1732 L511.5,458.1732 L521.5,458.1732 L511.5,448.1732 " fill="#FFFFFF" style="stroke:#000000;stroke-width:1.0;"/><text fill="#000000" font-family="Arial" font-size="16" font-weight="bold" lengthAdjust="spacing" textLength="100" x="255.5" y="468.181">Autonomous</text><text fill="#000000" font-family="Arial" font-size="14" lengthAdjust="spacing" textLength="124" x="255.5" y="484.7035">&#8226; No manual driving</text><text fill="#000000" font-family="Arial" font-size="20" lengthAdjust="spacing" textLength="187" x="255.5" y="506.43">&#8226; Auto obstacle avoid</text><text fill="#000000" font-family="Arial" font-size="20" lengthAdjust="spacing" textLength="251" x="255.5" y="529.4281">&#8226; Complete coverage&lt;/size&gt;</text></g><!--link React Dashboard to FastAPI Backend--><g id="link_React Dashboard_FastAPI Backend"><path d="M123.5,197.2332 C123.5,228.6532 123.5,275.4532 123.5,306.8832 " fill="none" id="React Dashboard-to-FastAPI Backend" style="stroke:#000000;stroke-width:1.0;"/><polygon fill="#000000" points="123.5,312.8832,127.5,303.8832,123.5,307.8832,119.5,303.8832,123.5,312.8832" style="stroke:#000000;stroke-width:1.0;"/><text fill="#000000" font-family="Arial" font-size="18" font-weight="bold" lengthAdjust="spacing" textLength="100" x="124.5" y="279.057">HTTP/REST</text></g><!--link FastAPI Backend to ROS Navigation--><g id="link_FastAPI Backend_ROS Navigation"><path d="M123.5,366.4132 C123.5,394.3232 123.5,432.5932 123.5,460.5532 " fill="none" id="FastAPI Backend-to-ROS Navigation" style="stroke:#000000;stroke-width:1.0;"/><polygon fill="#000000" points="123.5,466.5532,127.5,457.5532,123.5,461.5532,119.5,457.5532,123.5,466.5532" style="stroke:#000000;stroke-width:1.0;"/><text fill="#000000" font-family="Arial" font-size="18" font-weight="bold" lengthAdjust="spacing" textLength="102" x="124.5" y="414.057">ROS Topics</text></g><!--link ROS Navigation to Sensors & Actuators--><g id="link_ROS Navigation_Sensors &amp; Actuators"><path d="M123.5,520.1632 C123.5,548.0632 123.5,586.3432 123.5,614.2932 " fill="none" id="ROS Navigation-to-Sensors &amp; Actuators" style="stroke:#000000;stroke-width:1.0;"/><polygon fill="#000000" points="123.5,620.2932,127.5,611.2932,123.5,615.2932,119.5,611.2932,123.5,620.2932" style="stroke:#000000;stroke-width:1.0;"/><text fill="#000000" font-family="Arial" font-size="18" font-weight="bold" lengthAdjust="spacing" textLength="80" x="124.5" y="586.547">Direct I/O</text></g><!--SRC=[ZPJFRjf04CRlVeffAlKMGI9KfH6ov3zOGI8O6JSSWCDWBsQ5lMljBaIagjHdwQFrIResXXhijFLnP-RpRx-PsGzgGp82UOgK6ORSKfQZm0nYiiPTgZpEr9I-4RZljWV7gAijGJ6jnNECjfWGcukOY713eoqZKaBFC1HLAO6-r9AFzmzcVsLE3rAH34Pu84BsEokptocYfc5KAd1JfVUAzDd0Xk4u70IUvGngwJVmqNkmRRSBtmpGtxmgwXP50S58WOjoi-8eubhPWXtpxZwRprHAoXbCKcICicJ1HdHFu9apghWe3rnK22zKxZ2bRwXqTYMpDBw_msjD9gEXOuL3Vtn5wtbVd5uRhOTIMPCXs5gFi7TeWy4q19rLGKqrelxtWfrkuUZU29x-ao_mRJy4nn-7WJ-w9DHk3ZoxrKz_2cFSqwJoe0rmXeUSKwPgVlehgJ3I_NU98b5Hgdcv9lzlsYShS6TMSDrupt5ifmrqIfZaGi8di2ArG_qhsKuxeZ4A-FNZ9pXwe0KkMBWX8iEqF2iXPPrkVZLIIxYD-IkxDM5-rRubF5RpVbVE-rCOJZf5z-gptYmworrwVQrMH4EUq-XYTHf5PxKMGwubNIfqSs3OyI-saN55GD1aeu2leN7_qlkpdLhcgoIrlluHgkNrpD9mpjOqsGa2sN5sPPbpzBtSFSW5JuH-GSw15qfUGP_eH-ZK5aFR1WLa4_NIZ0QfjLESyOplv5yvnnmoP7hr8HPqhmVwJ5C803yDD-uvZSynXsTvgiST8hudnOesS7y3]--></g></svg>